<?xml version="1.0" standalone="no"?>
<!DOCTYPE svg PUBLIC "-//W3C//DTD SVG 1.1//EN" "http://www.w3.org/Graphics/SVG/1.1/DTD/svg11.dtd">
<svg width="100%" height="100%" viewBox="0 0 820 560" version="1.1" xmlns="http://www.w3.org/2000/svg" xmlns:xlink="http://www.w3.org/1999/xlink" xml:space="preserve" style="fill-rule:evenodd;clip-rule:evenodd;stroke-linejoin:round;stroke-miterlimit:1.41421;">
    <g id="Layer 3">
        <g>
            <clipPath id="_clip1">
                <path d="M206.747,211.98c0,113.771 92.229,206 206,206c113.77,0 206,-92.229 206,-206c0,-113.771 -92.23,-206 -206,-206c-113.771,0 -206,92.229 -206,206Z"/>
            </clipPath>
            <g clip-path="url(#_clip1)">
                <g>
                    <path d="M367.247,304.98l12.857,-50.106l-17.357,-9.894l-64.944,-6.5l-26.556,30l10.284,27.58l44.145,42.92l29.571,-34l12,0Z" style="fill:#69bc45;fill-rule:nonzero;"/>
                    <path d="M363.213,243.519l18.628,10.618l-13.43,52.343l-12.481,0l-30.163,34.68l-45.524,-44.26l-10.716,-28.74l27.661,-31.249l66.025,6.608ZM272.967,268.799l9.851,26.42l42.767,41.58l28.978,-33.319l11.52,0l12.283,-47.87l-16.085,-9.17l-63.864,-6.391l-25.45,28.75Z" style="fill:#fff;"/>
                </g>
                <path d="M467.924,182.027l16.932,-33.806l-135.609,-1.742l9,42.5l42.409,9.5l67.268,-16.452Z" style="fill:#69bc45;fill-rule:nonzero;"/>
                <path d="M341.747,13.48l2.189,113l66.811,-5l51.658,-31l18.776,-34.784l-48.434,2.784l-35.5,-4l-9.924,-49.917l-45.576,8.917Z" style="fill:#69bc45;fill-rule:nonzero;"/>
                <path d="M321.747,192.98l6,30.5l-27.944,15l-26.556,30l-58,11.5l-15,-84.5l10,-5l111.5,2.5Z" style="fill:#f9a61a;fill-rule:nonzero;"/>
                <path d="M470.247,180.48l40.5,-71.5l38,-7.5l43,0.5l47.667,90l-45.167,47l-17,15.5l-49.5,15.5l-49.5,-0.5l-1.5,-29l0,-42l-6.5,-18Z" style="fill:#ed2b2b;fill-rule:nonzero;"/>
                <path d="M525.747,269.98l49.5,-15.5l47.5,-47.5l-13,73.5l-10.5,1l-26.5,10.5l-40.5,8.5l-6.5,-30.5Z" style="fill:#69bc45;fill-rule:nonzero;"/>
                <path d="M323.247,339.48l32,-34.5l37,0l4.5,113l-39,-5l-0.5,-12l-21.5,-19.5l-5,-36.5l-7.5,-5.5Z" style="fill:#ed2b2b;fill-rule:nonzero;"/>
                <path d="M305.747,238.48l68.5,-32.5l48.5,-11.5l13.5,38l-47,24l-27,-13.5l-56.5,-4.5Z" style="fill:#aa83ba;fill-rule:nonzero;"/>
                <path d="M467.747,288.98l-11.5,25.5l41.5,14.5l100,-9.5l16,-41.5l-38,12l-65,14l-43,-15Z" style="fill:#aa83ba;fill-rule:nonzero;"/>
                <path d="M386.747,2.48l10.5,52l33,5.5l50.934,-4.284l65.566,45.784l48,0.5l-55.5,-74l-79.5,-35l-73,9.5Z" style="fill:#aa83ba;fill-rule:nonzero;"/>
                <path d="M321.747,192.98l4,31l66.5,-24l-27,-10l-43.5,3Z" style="fill:#ed2b2b;fill-rule:nonzero;"/>
                <path d="M413.414,139.313l2.667,-24l46.324,-24.833l22.342,-41.834l60,49.334l-33.333,6.666l-10.667,22.667l-87.333,12Z" style="fill:#f9a61a;fill-rule:nonzero;"/>
                <path d="M417.414,419.98l0.667,-115.333l38.166,9.833l-10.166,42.167l10,60.667l-38.667,2.666Z" style="fill:#f9a61a;fill-rule:nonzero;"/>
                <path d="M322.081,189.98l-4.667,-16.667l32.667,-20.666l14,41.333l-42,-4Z" style="fill:#f9a61a;fill-rule:nonzero;"/>
                <path d="M474.081,271.98l53.666,-2l4.5,30.5l-24.166,6.834l-40.334,-18.334l6.334,-17Z" style="fill:#f9a61a;fill-rule:nonzero;"/>
                <path d="M451.414,417.98l-4,-34l7.333,-58.666l34,22.666l68,28l-105.333,42Z" style="fill:#69bc45;fill-rule:nonzero;"/>
                <path d="M211.414,281.314l60,-10.667l10.117,25.413l49.216,48.92l4.667,31.667l21.833,24.333l0.5,12l-101,-39l-45.333,-92.666Z" style="fill:#554c9f;fill-rule:nonzero;"/>
                <path d="M422.747,194.48l45.177,-12.452l8.823,16.452l-1.333,17.5l-44,2l-8.667,-23.5Z" style="fill:#554c9f;fill-rule:nonzero;"/>
                <path d="M457.414,316.647l40.333,12.333l97.667,-10.333l-50,53.333l-48,-15.333l-44,-28l4,-12Z" style="fill:#554c9f;fill-rule:nonzero;"/>
                <path d="M202.081,191.98l116,-3.333l-11.333,-33.334l-22.667,-2.666l-28,-84.667l-33.333,34.667l-20.667,89.333Z" style="fill:#69bc45;fill-rule:nonzero;"/>
                <path d="M257.414,76.647l26.667,76l22.666,2.667l10,20.666l33.334,-23.333l-13.334,-16.667l-7.333,-127.333l-72,68Z" style="fill:#ed2b2b;fill-rule:nonzero;"/>
                <path d="M367.247,304.98l12.857,-50.106l13.977,8.44l0.666,41.333l-27.5,0.333Z" style="fill:#f9a61a;fill-rule:nonzero;"/>
                <path d="M414.081,259.314l5.333,-26.667l18.667,6l36,33.333l-10.667,29.334l-40,-40.667l-9.333,-1.333Z" style="fill:#ed2b2b;fill-rule:nonzero;"/>
                <path d="M460.747,299.98l-40.666,-40l-7.334,43.334l43.5,11.166l4.5,-14.5Z" style="fill:#f9a61a;fill-rule:nonzero;"/>
                <path d="M438.081,238.647l38.666,1.833l-2.666,31.5l-33.334,-24l-2.666,-9.333Z" style="fill:#aa83ba;fill-rule:nonzero;"/>
                <path d="M420.747,518.98l-34,0l0,-308l118,0l0,-58l-193,0l0,-141l34,0l0,107l193,0l0,126l-118,0l0,274Z" style="fill:#8bd5f6;fill-rule:nonzero;"/>
                <path d="M607.247,104.48l-50.198,0l-44.213,7.689l-30.964,46.93l-8.365,21.376l6.24,15.84l0,75.949l-17.236,36.499l-8.54,26.842l-2.214,45.741l4.463,35.699l-6.946,0.869l-4.538,-36.301l2.287,-47.259l8.959,-28.158l16.765,-35.501l0,-73.051l-6.76,-17.16l9.635,-24.624l33.036,-50.07l47.787,-8.31l50.802,0l0,7Z" style="fill:#fff;"/>
                <path d="M471.377,185.375l-32.706,9.982l-67.859,16.466l-46.11,18.345l-27.27,14.122l-24.38,27.427l-54.931,9.619l-1.208,-6.895l52.528,-9.198l23.621,-26.573l28.73,-14.878l46.89,-18.655l68.141,-16.535l32.511,-9.922l2.043,6.695Z" style="fill:#fff;"/>
                <path d="M285.26,296.043l48.795,48.795l4.518,33.13l20.492,23.491l2.647,18.526l-6.93,0.989l-2.354,-16.474l-20.507,-23.509l-4.483,-32.87l-48.205,-48.205l-11.266,-30.214l6.559,-2.445l10.734,28.786Z" style="fill:#fff;"/>
                <path d="M401.421,197.564l-1.53,6.831l-42.031,-9.415l-155.613,0l0,-7l156.387,0l42.787,9.584Z" style="fill:#fff;"/>
                <path d="M257.449,68.42l0.561,0.263l0.379,0.251l0.261,0.216l0.186,0.181l0.164,0.18l0.166,0.211l0.132,0.191l0.1,0.158l0.08,0.138l0.07,0.128l0.064,0.121l0.06,0.119l0.058,0.118l0.056,0.119l0.057,0.123l0.057,0.125l0.057,0.129l0.06,0.138l0.119,0.277l0.126,0.303l0.133,0.324l0.139,0.347l0.146,0.369l0.153,0.392l0.16,0.414l0.167,0.436l0.174,0.459l0.181,0.48l0.188,0.501l0.194,0.523l0.2,0.543l0.207,0.563l0.213,0.582l0.22,0.602l0.225,0.621l0.231,0.64l0.478,1.33l0.5,1.398l0.52,1.463l0.538,1.522l0.556,1.577l0.572,1.63l0.587,1.678l0.6,1.721l0.613,1.761l0.623,1.798l0.633,1.829l0.642,1.857l0.648,1.882l0.654,1.901l0.659,1.917l0.661,1.928l0.663,1.937l0.664,1.941l0.662,1.94l1.317,3.864l1.298,3.815l1.268,3.734l1.226,3.62l1.176,3.475l1.114,3.297l1.041,3.087l0.959,2.844l0.865,2.57l1.408,4.187l0.534,1.591l22.37,2.982l15.258,38.406l-6.506,2.585l-13.743,-34.594l-22.629,-3.018l-1.014,-3.025l-0.906,-2.699l-1.406,-4.183l-0.865,-2.568l-0.958,-2.842l-1.04,-3.084l-1.113,-3.294l-1.175,-3.472l-1.226,-3.617l-1.266,-3.73l-1.296,-3.811l-1.316,-3.859l-0.661,-1.938l-0.663,-1.938l-0.662,-1.933l-0.66,-1.926l-0.658,-1.914l-0.652,-1.897l-0.648,-1.878l-0.639,-1.853l-0.632,-1.824l-0.622,-1.793l-0.61,-1.756l-0.599,-1.715l-0.584,-1.671l-0.57,-1.622l-0.553,-1.57l-0.535,-1.513l-0.516,-1.452l-0.495,-1.386l-0.474,-1.319l-0.228,-0.63l-0.222,-0.613l-0.216,-0.593l-0.21,-0.573l-0.203,-0.552l-0.196,-0.531l-0.19,-0.51l-0.182,-0.487l-0.175,-0.464l-0.167,-0.441l-0.159,-0.416l-0.151,-0.391l-0.143,-0.366l-0.134,-0.338l-0.125,-0.311l-0.115,-0.282l-0.105,-0.251l-0.095,-0.223l-0.041,-0.092l-0.038,-0.087l-0.035,-0.077l-0.031,-0.066l-0.025,-0.055l-0.021,-0.041l-0.013,-0.027l-0.006,-0.01l0.006,0.01l0.021,0.037l0.045,0.071l0.083,0.119l0.121,0.154l0.143,0.157l0.166,0.162l0.243,0.201l0.362,0.24l0.545,0.255l0.793,0.192l0.464,-0.013l1.079,-0.206l0.941,-0.514l0.354,-0.271l0.477,-0.616l0.256,-0.505l0.133,-0.388l0.068,-0.292l0.033,-0.218l0.016,-0.166l0.008,-0.155l-0.001,-0.142l-0.006,-0.103l0,-0.005l-6.97,0.649l-0.011,-0.122l-0.012,-0.204l-0.001,-0.227l0.009,-0.192l0.019,-0.198l0.038,-0.246l0.073,-0.315l0.141,-0.409l0.264,-0.521l0.486,-0.628l0.797,-0.611l1.042,-0.376l1.034,-0.031l0.808,0.196Z" style="fill:#fff;"/>
                <path d="M632.173,208.002l-52.586,50.563l-51.294,16.415l-52.046,0l0,-7l50.953,0l48.706,-15.586l51.415,-49.437l4.852,5.045Z" style="fill:#fff;"/>
                <path d="M501.109,325.916l105.746,-11.915l0.783,6.956l-107.254,12.085l-44.664,-14.557l2.169,-6.655l43.22,14.086Z" style="fill:#fff;"/>
                <path d="M501.258,350.798l64.634,22.374l-2.29,6.615l-65.366,-22.627l-46.536,-28.769l3.681,-5.954l45.877,28.361Z" style="fill:#fff;"/>
                <path d="M363.495,242.528l24.914,14.201l35.408,0l40.397,42.335l-3.618,3.452l-38.919,-40.787l-34.592,0l-25.086,-14.299l-64.382,-4.781l0.37,-4.986l65.508,4.865Z" style="fill:#fff;"/>
                <path d="M457.618,312.793l-1.628,4.728l-29.162,-10.042l-70.501,0l-31.26,33.214l-3.641,-3.427l32.74,-34.787l73.499,0l29.953,10.314Z" style="fill:#fff;"/>
                <path d="M442.369,243.484l31.958,26.058l-3.16,3.875l-33.043,-26.942l-17.733,-50.02l4.712,-1.671l17.266,48.7Z" style="fill:#fff;"/>
                <path d="M382.525,255.494l-12.857,50.106l-4.843,-1.242l12.857,-50.106l4.843,1.242Z" style="fill:#fff;"/>
                <path d="M617.033,280.262l-44.148,14.639l-64.001,12.678l-41.417,-17.234l1.921,-4.616l40.015,16.65l62.205,-12.322l43.852,-14.541l1.573,4.746Z" style="fill:#fff;"/>
                <path d="M399.358,53.244l30.953,4.221l54.131,-4.553l67.096,47.178l-2.876,4.09l-65.611,-46.133l-52.87,4.447l-35.046,-4.779l-11.843,-60.757l4.908,-0.957l11.158,57.243Z" style="fill:#fff;"/>
                <path d="M327.164,225.823l-2.976,0.381l-4.429,-34.534l2.976,-0.381l4.429,34.534Z" style="fill:#fff;"/>
                <path d="M362.286,189.158l-2.89,0.804l-9.829,-35.354l-34.011,21.773l-1.618,-2.527l37.432,-23.962l10.916,39.266Z" style="fill:#fff;"/>
                <path d="M533.506,298.234l-2.959,0.491l-4.063,-24.5l2.959,-0.491l4.063,24.5Z" style="fill:#fff;"/>
                <path d="M482.501,56.408l-18.984,35.169l-46.349,25.828l-2.905,31.468l10.444,44.262l-2.92,0.689l-10.556,-44.738l3.095,-33.532l46.967,-26.172l18.568,-34.399l2.64,1.425Z" style="fill:#fff;"/>
            </g>
        </g>
        <path d="M413.429,0.981l0.682,0.003l0.681,0.005l0.681,0.008l0.68,0.009l0.68,0.012l0.679,0.014l0.678,0.016l0.679,0.019l0.677,0.02l0.677,0.023l0.677,0.024l0.676,0.027l0.675,0.029l0.675,0.031l0.675,0.033l0.674,0.035l0.673,0.038l0.673,0.039l0.672,0.041l0.671,0.044l0.672,0.046l0.67,0.048l0.67,0.05l0.669,0.052l0.669,0.054l0.668,0.056l0.668,0.058l0.667,0.06l0.666,0.063l0.666,0.064l0.665,0.067l0.665,0.068l0.664,0.071l0.663,0.072l0.663,0.075l0.662,0.077l0.662,0.079l0.661,0.081l0.66,0.082l0.66,0.085l0.659,0.087l0.658,0.089l0.658,0.091l0.657,0.093l0.657,0.095l0.656,0.097l0.655,0.099l0.654,0.102l0.654,0.103l0.654,0.105l0.652,0.107l0.652,0.109l0.651,0.111l0.651,0.113l0.65,0.115l0.649,0.117l0.648,0.119l0.648,0.121l0.647,0.123l0.647,0.125l0.645,0.127l0.645,0.128l0.644,0.131l0.644,0.133l0.643,0.135l0.642,0.136l0.642,0.139l0.64,0.14l0.64,0.143l0.639,0.144l0.639,0.147l0.638,0.148l0.637,0.15l0.636,0.152l0.636,0.154l0.635,0.156l0.634,0.158l0.633,0.16l0.632,0.162l0.632,0.163l0.631,0.166l0.63,0.167l0.63,0.169l0.629,0.172l0.627,0.173l0.628,0.175l0.626,0.176l0.626,0.179l0.624,0.181l0.624,0.182l0.623,0.185l0.623,0.186l0.621,0.188l0.621,0.19l0.62,0.191l0.619,0.194l0.618,0.196l0.618,0.197l0.617,0.199l0.615,0.201l0.615,0.203l0.615,0.204l0.613,0.207l0.612,0.208l0.612,0.21l0.611,0.212l0.61,0.214l0.609,0.216l0.608,0.217l0.607,0.219l0.607,0.221l0.605,0.223l0.605,0.225l0.604,0.226l0.603,0.228l0.602,0.23l0.601,0.232l0.601,0.234l0.599,0.235l0.599,0.237l0.597,0.239l0.597,0.24l0.596,0.243l0.595,0.244l0.594,0.246l0.593,0.248l0.592,0.249l0.592,0.251l0.59,0.253l0.589,0.255l0.589,0.256l0.587,0.258l0.587,0.26l0.586,0.262l0.584,0.263l0.584,0.265l0.583,0.267l0.582,0.268l0.581,0.27l0.58,0.272l0.579,0.274l0.578,0.275l0.577,0.277l0.576,0.279l0.575,0.28l0.574,0.282l0.573,0.284l0.573,0.285l0.571,0.287l0.57,0.289l0.569,0.291l0.568,0.292l0.568,0.293l0.566,0.296l0.565,0.297l0.564,0.299l0.563,0.3l0.562,0.302l0.562,0.304l0.56,0.305l0.559,0.307l0.558,0.309l0.557,0.31l0.556,0.312l0.555,0.314l0.553,0.315l0.553,0.317l0.552,0.318l0.551,0.32l0.55,0.322l0.548,0.323l0.548,0.325l0.546,0.326l0.546,0.328l0.544,0.33l0.543,0.331l0.542,0.333l0.541,0.334l0.54,0.336l0.539,0.338l0.538,0.339l0.537,0.34l0.535,0.343l0.535,0.343l0.533,0.346l0.533,0.347l0.531,0.348l0.53,0.35l0.529,0.352l0.528,0.353l0.527,0.355l0.525,0.356l0.525,0.358l0.523,0.359l0.522,0.361l0.521,0.362l0.52,0.364l0.519,0.366l0.517,0.367l0.517,0.368l0.515,0.37l0.514,0.371l0.513,0.373l0.512,0.375l0.511,0.376l0.509,0.377l0.509,0.379l0.507,0.381l0.506,0.382l0.504,0.383l0.504,0.385l0.502,0.386l0.501,0.388l0.5,0.389l0.499,0.391l0.498,0.392l0.496,0.394l0.495,0.395l0.494,0.397l0.493,0.398l0.491,0.399l0.491,0.401l0.489,0.402l0.487,0.404l0.487,0.405l0.485,0.407l0.484,0.408l0.483,0.41l0.482,0.411l0.48,0.412l0.479,0.414l0.478,0.415l0.477,0.416l0.475,0.419l0.474,0.419l0.473,0.421l0.471,0.422l0.471,0.423l0.469,0.425l0.467,0.427l0.467,0.427l0.465,0.43l0.464,0.43l0.462,0.432l0.461,0.433l0.46,0.435l0.459,0.436l0.457,0.437l0.456,0.439l0.455,0.44l0.453,0.441l0.452,0.443l0.451,0.444l0.45,0.445l0.447,0.447l0.447,0.448l0.446,0.449l0.444,0.451l0.442,0.452l0.442,0.453l0.44,0.455l0.438,0.456l0.438,0.457l0.436,0.459l0.434,0.46l0.434,0.461l0.431,0.463l0.431,0.463l0.429,0.466l0.428,0.466l0.426,0.468l0.425,0.469l0.424,0.47l0.422,0.471l0.42,0.473l0.42,0.474l0.418,0.476l0.416,0.476l0.416,0.478l0.413,0.479l0.413,0.48l0.411,0.482l0.409,0.483l0.408,0.484l0.407,0.485l0.405,0.487l0.404,0.488l0.402,0.489l0.401,0.49l0.4,0.492l0.398,0.492l0.396,0.494l0.395,0.495l0.394,0.497l0.392,0.497l0.391,0.499l0.389,0.5l0.388,0.501l0.387,0.503l0.384,0.503l0.384,0.505l0.382,0.506l0.38,0.507l0.379,0.508l0.378,0.51l0.375,0.51l0.375,0.512l0.373,0.513l0.371,0.514l0.37,0.515l0.369,0.517l0.367,0.517l0.365,0.519l0.364,0.52l0.362,0.521l0.361,0.522l0.36,0.524l0.357,0.524l0.356,0.526l0.355,0.527l0.353,0.527l0.352,0.529l0.35,0.53l0.348,0.532l0.347,0.532l0.346,0.533l0.344,0.535l0.342,0.535l0.341,0.537l0.339,0.538l0.337,0.539l0.336,0.54l0.335,0.541l0.332,0.542l0.332,0.543l0.329,0.545l0.328,0.545l0.327,0.547l0.325,0.547l0.323,0.549l0.321,0.55l0.32,0.55l0.319,0.552l0.317,0.553l0.315,0.554l0.313,0.555l0.312,0.556l0.31,0.557l0.309,0.558l0.307,0.559l0.305,0.56l0.304,0.561l0.302,0.562l0.301,0.563l0.298,0.564l0.298,0.566l0.295,0.566l0.294,0.567l0.292,0.568l0.29,0.569l0.289,0.571l0.287,0.571l0.286,0.572l0.283,0.573l0.282,0.574l0.281,0.575l0.278,0.576l0.277,0.577l0.276,0.578l0.273,0.58l0.272,0.58l0.27,0.581l0.269,0.581l0.266,0.583l0.266,0.584l0.263,0.585l0.261,0.585l0.26,0.587l0.258,0.588l0.257,0.588l0.254,0.589l0.253,0.591l0.251,0.591l0.25,0.592l0.247,0.593l0.246,0.594l0.245,0.595l0.242,0.596l0.241,0.597l0.238,0.598l0.237,0.598l0.236,0.599l0.233,0.601l0.232,0.601l0.23,0.602l0.228,0.603l0.227,0.604l0.224,0.605l0.223,0.605l0.221,0.607l0.219,0.607l0.218,0.609l0.215,0.609l0.214,0.609l0.212,0.611l0.21,0.612l0.208,0.612l0.207,0.614l0.205,0.614l0.202,0.615l0.201,0.616l0.2,0.617l0.197,0.617l0.195,0.618l0.194,0.619l0.192,0.62l0.19,0.621l0.188,0.622l0.186,0.622l0.184,0.623l0.183,0.624l0.18,0.625l0.179,0.625l0.177,0.627l0.175,0.627l0.173,0.628l0.171,0.628l0.169,0.63l0.168,0.63l0.165,0.631l0.164,0.632l0.161,0.632l0.16,0.634l0.158,0.634l0.156,0.635l0.154,0.635l0.152,0.637l0.15,0.637l0.149,0.637l0.146,0.639l0.144,0.639l0.143,0.64l0.141,0.641l0.138,0.641l0.137,0.642l0.134,0.643l0.133,0.644l0.131,0.644l0.129,0.645l0.127,0.646l0.125,0.646l0.123,0.647l0.12,0.648l0.119,0.649l0.117,0.649l0.115,0.65l0.114,0.65l0.111,0.652l0.109,0.651l0.107,0.653l0.105,0.653l0.103,0.654l0.101,0.654l0.099,0.656l0.097,0.656l0.095,0.656l0.093,0.657l0.091,0.658l0.089,0.659l0.087,0.658l0.085,0.66l0.083,0.66l0.081,0.661l0.078,0.662l0.077,0.662l0.075,0.663l0.073,0.663l0.07,0.664l0.069,0.665l0.066,0.665l0.065,0.666l0.062,0.666l0.06,0.668l0.059,0.667l0.056,0.668l0.054,0.669l0.052,0.669l0.05,0.67l0.047,0.671l0.046,0.671l0.044,0.671l0.041,0.673l0.04,0.673l0.037,0.673l0.035,0.674l0.033,0.674l0.031,0.675l0.029,0.675l0.027,0.677l0.025,0.676l0.022,0.677l0.021,0.678l0.018,0.678l0.016,0.679l0.014,0.679l0.012,0.679l0.01,0.681l0.007,0.68l0.006,0.682l0.003,0.681l0.001,0.683l-0.001,0.682l-0.003,0.681l-0.006,0.682l-0.007,0.68l-0.01,0.681l-0.012,0.679l-0.014,0.679l-0.016,0.679l-0.018,0.678l-0.021,0.678l-0.022,0.677l-0.025,0.676l-0.027,0.677l-0.029,0.675l-0.031,0.675l-0.033,0.674l-0.035,0.674l-0.037,0.673l-0.04,0.673l-0.041,0.673l-0.044,0.671l-0.046,0.671l-0.047,0.671l-0.05,0.67l-0.052,0.669l-0.054,0.669l-0.056,0.668l-0.059,0.667l-0.06,0.668l-0.062,0.666l-0.065,0.666l-0.066,0.665l-0.069,0.665l-0.07,0.664l-0.073,0.663l-0.075,0.663l-0.077,0.662l-0.078,0.662l-0.081,0.661l-0.083,0.66l-0.085,0.66l-0.087,0.658l-0.089,0.659l-0.091,0.658l-0.093,0.657l-0.095,0.656l-0.097,0.656l-0.099,0.656l-0.101,0.654l-0.103,0.654l-0.105,0.653l-0.107,0.653l-0.109,0.651l-0.111,0.652l-0.114,0.65l-0.115,0.65l-0.117,0.649l-0.119,0.649l-0.12,0.648l-0.123,0.647l-0.125,0.646l-0.127,0.646l-0.129,0.645l-0.131,0.644l-0.133,0.644l-0.134,0.643l-0.137,0.642l-0.138,0.641l-0.141,0.641l-0.143,0.64l-0.144,0.639l-0.146,0.639l-0.149,0.637l-0.15,0.637l-0.152,0.637l-0.154,0.635l-0.156,0.635l-0.158,0.634l-0.16,0.634l-0.161,0.632l-0.164,0.632l-0.165,0.631l-0.168,0.63l-0.169,0.63l-0.171,0.628l-0.173,0.628l-0.175,0.627l-0.177,0.627l-0.179,0.625l-0.18,0.625l-0.183,0.624l-0.184,0.623l-0.186,0.622l-0.188,0.622l-0.19,0.621l-0.192,0.62l-0.194,0.619l-0.195,0.618l-0.197,0.617l-0.2,0.617l-0.201,0.616l-0.202,0.615l-0.205,0.614l-0.207,0.614l-0.208,0.612l-0.21,0.612l-0.212,0.611l-0.214,0.609l-0.215,0.61l-0.218,0.608l-0.219,0.607l-0.221,0.607l-0.223,0.605l-0.224,0.605l-0.227,0.604l-0.228,0.603l-0.23,0.602l-0.232,0.601l-0.233,0.601l-0.236,0.599l-0.237,0.598l-0.238,0.598l-0.241,0.597l-0.242,0.596l-0.245,0.595l-0.246,0.594l-0.247,0.593l-0.25,0.592l-0.251,0.591l-0.253,0.591l-0.254,0.589l-0.257,0.588l-0.258,0.588l-0.26,0.587l-0.261,0.585l-0.263,0.585l-0.266,0.584l-0.266,0.583l-0.269,0.581l-0.27,0.581l-0.272,0.581l-0.273,0.579l-0.276,0.578l-0.277,0.577l-0.278,0.576l-0.281,0.575l-0.282,0.574l-0.283,0.573l-0.286,0.572l-0.287,0.572l-0.289,0.57l-0.29,0.569l-0.292,0.568l-0.294,0.567l-0.295,0.566l-0.298,0.566l-0.298,0.564l-0.301,0.563l-0.302,0.562l-0.304,0.561l-0.305,0.56l-0.307,0.559l-0.309,0.559l-0.31,0.557l-0.312,0.555l-0.313,0.555l-0.315,0.554l-0.317,0.553l-0.319,0.552l-0.32,0.551l-0.321,0.549l-0.323,0.549l-0.325,0.547l-0.327,0.547l-0.328,0.545l-0.329,0.545l-0.332,0.543l-0.332,0.542l-0.335,0.541l-0.336,0.54l-0.337,0.539l-0.339,0.538l-0.341,0.537l-0.342,0.535l-0.344,0.535l-0.346,0.533l-0.347,0.532l-0.348,0.532l-0.35,0.53l-0.352,0.529l-0.353,0.527l-0.355,0.527l-0.356,0.526l-0.357,0.524l-0.36,0.524l-0.361,0.522l-0.362,0.521l-0.364,0.52l-0.365,0.519l-0.367,0.517l-0.369,0.517l-0.37,0.515l-0.371,0.514l-0.373,0.513l-0.375,0.512l-0.375,0.51l-0.378,0.51l-0.379,0.508l-0.38,0.507l-0.382,0.506l-0.384,0.505l-0.384,0.503l-0.387,0.503l-0.388,0.501l-0.389,0.5l-0.391,0.499l-0.392,0.497l-0.394,0.497l-0.395,0.495l-0.396,0.494l-0.398,0.493l-0.4,0.491l-0.401,0.49l-0.402,0.489l-0.404,0.488l-0.405,0.487l-0.407,0.485l-0.408,0.484l-0.409,0.483l-0.411,0.482l-0.413,0.48l-0.413,0.479l-0.416,0.478l-0.416,0.476l-0.418,0.476l-0.42,0.474l-0.42,0.473l-0.422,0.471l-0.424,0.47l-0.425,0.469l-0.426,0.468l-0.428,0.466l-0.429,0.466l-0.431,0.463l-0.431,0.463l-0.434,0.461l-0.434,0.46l-0.436,0.459l-0.438,0.457l-0.438,0.456l-0.44,0.455l-0.442,0.453l-0.442,0.452l-0.444,0.451l-0.446,0.449l-0.447,0.448l-0.448,0.447l-0.449,0.445l-0.451,0.444l-0.452,0.443l-0.453,0.441l-0.455,0.44l-0.456,0.439l-0.457,0.437l-0.459,0.436l-0.46,0.435l-0.461,0.433l-0.462,0.432l-0.464,0.43l-0.465,0.43l-0.467,0.427l-0.467,0.427l-0.469,0.425l-0.471,0.423l-0.471,0.422l-0.473,0.421l-0.474,0.42l-0.475,0.418l-0.477,0.416l-0.478,0.415l-0.479,0.414l-0.48,0.412l-0.482,0.411l-0.483,0.41l-0.484,0.408l-0.485,0.407l-0.487,0.405l-0.487,0.404l-0.489,0.402l-0.491,0.401l-0.491,0.399l-0.493,0.398l-0.494,0.397l-0.495,0.395l-0.496,0.394l-0.498,0.392l-0.499,0.391l-0.5,0.389l-0.501,0.388l-0.502,0.386l-0.504,0.385l-0.504,0.383l-0.506,0.382l-0.507,0.381l-0.509,0.379l-0.509,0.377l-0.511,0.376l-0.512,0.375l-0.513,0.373l-0.514,0.371l-0.515,0.37l-0.517,0.368l-0.517,0.367l-0.519,0.366l-0.52,0.364l-0.521,0.362l-0.522,0.361l-0.523,0.359l-0.525,0.358l-0.525,0.356l-0.527,0.355l-0.528,0.353l-0.529,0.352l-0.53,0.35l-0.531,0.348l-0.533,0.347l-0.533,0.346l-0.535,0.343l-0.535,0.343l-0.537,0.34l-0.538,0.339l-0.539,0.338l-0.54,0.336l-0.541,0.334l-0.542,0.333l-0.543,0.331l-0.544,0.33l-0.546,0.328l-0.546,0.326l-0.548,0.325l-0.548,0.323l-0.55,0.322l-0.551,0.32l-0.552,0.318l-0.553,0.317l-0.553,0.315l-0.555,0.314l-0.556,0.312l-0.557,0.31l-0.558,0.309l-0.559,0.307l-0.56,0.305l-0.562,0.304l-0.562,0.302l-0.563,0.3l-0.564,0.299l-0.565,0.297l-0.566,0.296l-0.568,0.293l-0.568,0.293l-0.569,0.29l-0.57,0.289l-0.571,0.287l-0.573,0.285l-0.573,0.284l-0.574,0.282l-0.575,0.28l-0.576,0.279l-0.577,0.277l-0.578,0.275l-0.579,0.274l-0.58,0.272l-0.581,0.27l-0.582,0.268l-0.583,0.267l-0.584,0.265l-0.584,0.263l-0.586,0.262l-0.587,0.26l-0.587,0.258l-0.589,0.256l-0.589,0.255l-0.59,0.253l-0.592,0.251l-0.592,0.249l-0.593,0.248l-0.594,0.246l-0.595,0.244l-0.596,0.243l-0.597,0.24l-0.597,0.239l-0.599,0.237l-0.599,0.235l-0.601,0.234l-0.601,0.232l-0.602,0.23l-0.603,0.228l-0.604,0.226l-0.605,0.225l-0.605,0.223l-0.607,0.221l-0.607,0.219l-0.608,0.217l-0.609,0.216l-0.61,0.214l-0.611,0.212l-0.612,0.21l-0.612,0.208l-0.613,0.207l-0.615,0.204l-0.615,0.203l-0.616,0.201l-0.616,0.199l-0.617,0.197l-0.619,0.196l-0.619,0.194l-0.62,0.191l-0.621,0.19l-0.621,0.188l-0.623,0.187l-0.623,0.184l-0.624,0.182l-0.624,0.181l-0.626,0.179l-0.626,0.176l-0.627,0.175l-0.628,0.173l-0.629,0.172l-0.63,0.169l-0.63,0.167l-0.631,0.166l-0.632,0.163l-0.632,0.162l-0.633,0.16l-0.635,0.158l-0.634,0.156l-0.636,0.154l-0.636,0.152l-0.637,0.15l-0.638,0.148l-0.639,0.147l-0.639,0.144l-0.64,0.143l-0.64,0.14l-0.642,0.139l-0.642,0.136l-0.643,0.135l-0.644,0.133l-0.644,0.131l-0.645,0.128l-0.645,0.127l-0.647,0.125l-0.647,0.123l-0.648,0.121l-0.648,0.119l-0.65,0.117l-0.649,0.115l-0.651,0.113l-0.651,0.111l-0.652,0.109l-0.653,0.107l-0.653,0.105l-0.654,0.104l-0.654,0.101l-0.655,0.099l-0.656,0.097l-0.657,0.095l-0.657,0.093l-0.657,0.091l-0.659,0.089l-0.659,0.087l-0.66,0.085l-0.66,0.082l-0.661,0.081l-0.662,0.079l-0.662,0.077l-0.662,0.075l-0.664,0.072l-0.664,0.071l-0.665,0.068l-0.665,0.067l-0.666,0.064l-0.666,0.063l-0.667,0.06l-0.668,0.058l-0.668,0.056l-0.669,0.054l-0.669,0.052l-0.67,0.05l-0.671,0.048l-0.671,0.046l-0.671,0.044l-0.672,0.041l-0.673,0.039l-0.673,0.038l-0.674,0.035l-0.675,0.033l-0.675,0.031l-0.675,0.029l-0.676,0.027l-0.677,0.024l-0.677,0.023l-0.677,0.02l-0.679,0.019l-0.678,0.016l-0.679,0.014l-0.68,0.012l-0.68,0.009l-0.681,0.008l-0.681,0.005l-0.682,0.003l-0.682,0.002l-0.682,-0.002l-0.682,-0.003l-0.681,-0.005l-0.681,-0.008l-0.68,-0.009l-0.68,-0.012l-0.679,-0.014l-0.679,-0.016l-0.678,-0.019l-0.678,-0.02l-0.677,-0.023l-0.676,-0.024l-0.676,-0.027l-0.676,-0.029l-0.675,-0.031l-0.674,-0.033l-0.674,-0.035l-0.673,-0.038l-0.673,-0.039l-0.672,-0.041l-0.672,-0.044l-0.671,-0.046l-0.67,-0.048l-0.67,-0.05l-0.67,-0.052l-0.668,-0.054l-0.669,-0.056l-0.667,-0.058l-0.667,-0.06l-0.667,-0.063l-0.665,-0.064l-0.666,-0.067l-0.664,-0.068l-0.664,-0.071l-0.664,-0.072l-0.663,-0.075l-0.662,-0.077l-0.661,-0.079l-0.661,-0.081l-0.661,-0.082l-0.659,-0.085l-0.659,-0.087l-0.659,-0.089l-0.657,-0.091l-0.658,-0.093l-0.656,-0.095l-0.656,-0.097l-0.655,-0.099l-0.655,-0.101l-0.654,-0.104l-0.653,-0.105l-0.652,-0.107l-0.652,-0.109l-0.652,-0.111l-0.65,-0.113l-0.65,-0.115l-0.649,-0.117l-0.649,-0.119l-0.647,-0.121l-0.647,-0.123l-0.647,-0.125l-0.646,-0.127l-0.644,-0.128l-0.645,-0.131l-0.643,-0.133l-0.643,-0.135l-0.642,-0.136l-0.642,-0.139l-0.641,-0.14l-0.639,-0.143l-0.64,-0.144l-0.638,-0.147l-0.638,-0.148l-0.637,-0.15l-0.636,-0.152l-0.636,-0.154l-0.635,-0.156l-0.634,-0.158l-0.633,-0.16l-0.633,-0.162l-0.632,-0.163l-0.631,-0.166l-0.63,-0.167l-0.629,-0.169l-0.629,-0.172l-0.628,-0.173l-0.627,-0.175l-0.626,-0.176l-0.626,-0.179l-0.625,-0.181l-0.624,-0.182l-0.623,-0.184l-0.622,-0.187l-0.622,-0.188l-0.621,-0.19l-0.619,-0.191l-0.619,-0.194l-0.619,-0.196l-0.617,-0.197l-0.617,-0.199l-0.616,-0.201l-0.615,-0.203l-0.614,-0.204l-0.613,-0.207l-0.613,-0.208l-0.611,-0.21l-0.611,-0.212l-0.61,-0.214l-0.609,-0.216l-0.608,-0.217l-0.608,-0.219l-0.606,-0.221l-0.606,-0.223l-0.604,-0.225l-0.604,-0.226l-0.603,-0.228l-0.602,-0.23l-0.602,-0.232l-0.6,-0.234l-0.599,-0.235l-0.599,-0.237l-0.598,-0.239l-0.596,-0.24l-0.596,-0.243l-0.595,-0.244l-0.594,-0.246l-0.593,-0.248l-0.593,-0.249l-0.591,-0.251l-0.59,-0.253l-0.59,-0.255l-0.588,-0.256l-0.588,-0.258l-0.586,-0.26l-0.586,-0.262l-0.585,-0.263l-0.584,-0.265l-0.582,-0.267l-0.582,-0.268l-0.581,-0.27l-0.58,-0.272l-0.579,-0.274l-0.578,-0.275l-0.577,-0.277l-0.576,-0.279l-0.575,-0.28l-0.575,-0.282l-0.573,-0.284l-0.572,-0.285l-0.571,-0.287l-0.57,-0.289l-0.569,-0.29l-0.569,-0.293l-0.567,-0.293l-0.566,-0.296l-0.565,-0.297l-0.565,-0.299l-0.563,-0.3l-0.562,-0.302l-0.561,-0.304l-0.56,-0.305l-0.559,-0.307l-0.558,-0.309l-0.557,-0.31l-0.556,-0.312l-0.555,-0.314l-0.554,-0.315l-0.553,-0.317l-0.551,-0.318l-0.551,-0.32l-0.55,-0.322l-0.548,-0.323l-0.548,-0.325l-0.546,-0.326l-0.546,-0.328l-0.544,-0.33l-0.543,-0.331l-0.543,-0.333l-0.541,-0.334l-0.54,-0.336l-0.539,-0.338l-0.537,-0.339l-0.537,-0.34l-0.536,-0.343l-0.534,-0.343l-0.534,-0.346l-0.532,-0.347l-0.531,-0.348l-0.53,-0.35l-0.529,-0.352l-0.528,-0.353l-0.527,-0.355l-0.525,-0.356l-0.525,-0.358l-0.523,-0.359l-0.522,-0.361l-0.522,-0.362l-0.52,-0.364l-0.518,-0.366l-0.518,-0.367l-0.516,-0.368l-0.516,-0.37l-0.514,-0.371l-0.513,-0.373l-0.512,-0.375l-0.51,-0.376l-0.51,-0.377l-0.508,-0.379l-0.507,-0.381l-0.506,-0.382l-0.505,-0.383l-0.503,-0.385l-0.503,-0.386l-0.501,-0.388l-0.5,-0.389l-0.499,-0.391l-0.497,-0.392l-0.496,-0.394l-0.496,-0.395l-0.494,-0.397l-0.492,-0.398l-0.492,-0.399l-0.49,-0.401l-0.489,-0.402l-0.488,-0.404l-0.486,-0.405l-0.486,-0.407l-0.484,-0.408l-0.483,-0.41l-0.481,-0.411l-0.481,-0.412l-0.479,-0.414l-0.478,-0.415l-0.476,-0.417l-0.475,-0.417l-0.475,-0.42l-0.472,-0.421l-0.472,-0.422l-0.47,-0.423l-0.469,-0.425l-0.468,-0.427l-0.466,-0.427l-0.465,-0.43l-0.464,-0.43l-0.463,-0.432l-0.461,-0.433l-0.46,-0.435l-0.458,-0.436l-0.457,-0.437l-0.457,-0.439l-0.454,-0.44l-0.454,-0.441l-0.452,-0.443l-0.45,-0.444l-0.45,-0.445l-0.448,-0.447l-0.447,-0.448l-0.445,-0.449l-0.444,-0.451l-0.443,-0.452l-0.441,-0.453l-0.44,-0.455l-0.439,-0.456l-0.437,-0.457l-0.436,-0.459l-0.435,-0.46l-0.433,-0.461l-0.432,-0.463l-0.43,-0.464l-0.429,-0.465l-0.428,-0.466l-0.426,-0.468l-0.425,-0.469l-0.424,-0.47l-0.422,-0.471l-0.421,-0.473l-0.419,-0.474l-0.418,-0.475l-0.417,-0.477l-0.415,-0.478l-0.414,-0.479l-0.412,-0.48l-0.411,-0.482l-0.409,-0.483l-0.409,-0.484l-0.406,-0.485l-0.405,-0.487l-0.404,-0.488l-0.403,-0.489l-0.401,-0.49l-0.399,-0.491l-0.398,-0.493l-0.397,-0.494l-0.395,-0.495l-0.393,-0.497l-0.393,-0.497l-0.39,-0.499l-0.39,-0.5l-0.388,-0.501l-0.386,-0.502l-0.385,-0.504l-0.383,-0.505l-0.382,-0.506l-0.38,-0.507l-0.379,-0.508l-0.378,-0.51l-0.376,-0.51l-0.374,-0.512l-0.373,-0.513l-0.372,-0.514l-0.37,-0.515l-0.368,-0.517l-0.367,-0.517l-0.365,-0.519l-0.364,-0.52l-0.363,-0.521l-0.36,-0.522l-0.36,-0.524l-0.358,-0.524l-0.356,-0.526l-0.354,-0.526l-0.354,-0.528l-0.351,-0.529l-0.35,-0.53l-0.349,-0.532l-0.347,-0.532l-0.345,-0.533l-0.344,-0.535l-0.342,-0.535l-0.341,-0.537l-0.339,-0.538l-0.338,-0.539l-0.336,-0.54l-0.334,-0.541l-0.333,-0.542l-0.331,-0.543l-0.33,-0.545l-0.328,-0.545l-0.326,-0.547l-0.325,-0.547l-0.323,-0.549l-0.322,-0.549l-0.32,-0.551l-0.318,-0.552l-0.317,-0.553l-0.315,-0.554l-0.314,-0.555l-0.311,-0.556l-0.311,-0.557l-0.308,-0.558l-0.307,-0.559l-0.306,-0.56l-0.303,-0.561l-0.302,-0.562l-0.301,-0.563l-0.299,-0.564l-0.297,-0.566l-0.295,-0.566l-0.294,-0.567l-0.292,-0.568l-0.291,-0.569l-0.288,-0.57l-0.288,-0.572l-0.285,-0.572l-0.284,-0.573l-0.282,-0.574l-0.28,-0.575l-0.279,-0.576l-0.277,-0.578l-0.275,-0.577l-0.274,-0.579l-0.271,-0.581l-0.271,-0.58l-0.268,-0.582l-0.267,-0.583l-0.265,-0.584l-0.263,-0.585l-0.262,-0.585l-0.26,-0.587l-0.258,-0.588l-0.256,-0.588l-0.255,-0.589l-0.253,-0.591l-0.251,-0.591l-0.249,-0.592l-0.248,-0.593l-0.246,-0.594l-0.244,-0.595l-0.242,-0.596l-0.241,-0.597l-0.239,-0.598l-0.237,-0.598l-0.235,-0.6l-0.234,-0.6l-0.231,-0.601l-0.23,-0.602l-0.229,-0.603l-0.226,-0.604l-0.225,-0.605l-0.222,-0.606l-0.221,-0.606l-0.22,-0.607l-0.217,-0.609l-0.216,-0.609l-0.213,-0.61l-0.212,-0.61l-0.21,-0.612l-0.209,-0.612l-0.206,-0.614l-0.205,-0.614l-0.203,-0.615l-0.201,-0.616l-0.199,-0.616l-0.197,-0.618l-0.196,-0.618l-0.193,-0.619l-0.192,-0.62l-0.19,-0.621l-0.188,-0.622l-0.186,-0.622l-0.184,-0.623l-0.183,-0.624l-0.181,-0.625l-0.178,-0.625l-0.177,-0.627l-0.175,-0.627l-0.173,-0.628l-0.171,-0.628l-0.17,-0.63l-0.167,-0.63l-0.165,-0.631l-0.164,-0.632l-0.162,-0.632l-0.16,-0.634l-0.157,-0.634l-0.156,-0.635l-0.154,-0.635l-0.153,-0.637l-0.15,-0.636l-0.148,-0.638l-0.146,-0.639l-0.145,-0.639l-0.142,-0.64l-0.141,-0.641l-0.138,-0.641l-0.137,-0.642l-0.135,-0.643l-0.132,-0.644l-0.131,-0.644l-0.129,-0.645l-0.127,-0.646l-0.125,-0.646l-0.123,-0.647l-0.121,-0.648l-0.119,-0.649l-0.117,-0.649l-0.115,-0.65l-0.113,-0.65l-0.111,-0.651l-0.109,-0.652l-0.107,-0.653l-0.105,-0.653l-0.103,-0.654l-0.101,-0.654l-0.099,-0.656l-0.097,-0.655l-0.095,-0.657l-0.093,-0.657l-0.091,-0.658l-0.089,-0.658l-0.087,-0.659l-0.085,-0.66l-0.083,-0.66l-0.081,-0.661l-0.079,-0.662l-0.076,-0.662l-0.075,-0.663l-0.073,-0.663l-0.07,-0.664l-0.069,-0.665l-0.067,-0.665l-0.064,-0.666l-0.062,-0.666l-0.061,-0.667l-0.058,-0.668l-0.056,-0.668l-0.054,-0.669l-0.052,-0.669l-0.05,-0.67l-0.048,-0.671l-0.046,-0.671l-0.043,-0.671l-0.042,-0.673l-0.039,-0.672l-0.037,-0.674l-0.036,-0.674l-0.033,-0.674l-0.031,-0.675l-0.029,-0.675l-0.026,-0.676l-0.025,-0.677l-0.023,-0.677l-0.02,-0.678l-0.018,-0.678l-0.016,-0.679l-0.014,-0.679l-0.012,-0.679l-0.01,-0.681l-0.007,-0.68l-0.006,-0.682l-0.003,-0.681l-0.001,-0.682l0.001,-0.683l0.003,-0.681l0.006,-0.682l0.007,-0.68l0.01,-0.681l0.012,-0.679l0.014,-0.679l0.016,-0.679l0.018,-0.678l0.02,-0.678l0.023,-0.677l0.025,-0.677l0.026,-0.675l0.029,-0.676l0.031,-0.675l0.033,-0.674l0.036,-0.674l0.037,-0.674l0.039,-0.672l0.042,-0.672l0.043,-0.672l0.046,-0.671l0.048,-0.671l0.05,-0.67l0.052,-0.669l0.054,-0.669l0.056,-0.668l0.058,-0.668l0.061,-0.667l0.062,-0.666l0.064,-0.666l0.067,-0.665l0.069,-0.665l0.07,-0.664l0.073,-0.663l0.075,-0.663l0.076,-0.662l0.079,-0.662l0.081,-0.661l0.083,-0.66l0.085,-0.66l0.087,-0.659l0.089,-0.658l0.091,-0.658l0.093,-0.657l0.095,-0.656l0.097,-0.656l0.099,-0.656l0.101,-0.654l0.103,-0.654l0.105,-0.653l0.107,-0.653l0.109,-0.652l0.111,-0.651l0.113,-0.65l0.115,-0.65l0.117,-0.649l0.119,-0.649l0.121,-0.648l0.123,-0.647l0.125,-0.646l0.127,-0.646l0.129,-0.645l0.13,-0.644l0.133,-0.644l0.135,-0.643l0.137,-0.642l0.138,-0.641l0.141,-0.641l0.142,-0.64l0.145,-0.639l0.146,-0.639l0.148,-0.638l0.15,-0.636l0.153,-0.637l0.154,-0.635l0.156,-0.635l0.157,-0.634l0.16,-0.634l0.162,-0.632l0.164,-0.632l0.165,-0.631l0.167,-0.63l0.17,-0.63l0.171,-0.628l0.173,-0.628l0.175,-0.627l0.177,-0.627l0.178,-0.625l0.181,-0.625l0.183,-0.624l0.184,-0.623l0.186,-0.622l0.188,-0.622l0.19,-0.621l0.192,-0.62l0.193,-0.619l0.196,-0.618l0.197,-0.618l0.199,-0.616l0.201,-0.616l0.203,-0.615l0.205,-0.614l0.206,-0.614l0.209,-0.612l0.21,-0.612l0.212,-0.61l0.213,-0.61l0.216,-0.609l0.217,-0.609l0.22,-0.607l0.221,-0.606l0.222,-0.606l0.225,-0.605l0.226,-0.604l0.229,-0.603l0.23,-0.602l0.231,-0.601l0.234,-0.6l0.235,-0.6l0.237,-0.598l0.239,-0.598l0.241,-0.597l0.242,-0.596l0.244,-0.595l0.246,-0.594l0.248,-0.593l0.249,-0.592l0.251,-0.591l0.253,-0.591l0.255,-0.589l0.256,-0.588l0.258,-0.588l0.26,-0.587l0.262,-0.585l0.263,-0.585l0.265,-0.584l0.267,-0.583l0.268,-0.582l0.271,-0.58l0.271,-0.58l0.274,-0.579l0.275,-0.578l0.277,-0.578l0.279,-0.576l0.28,-0.575l0.282,-0.574l0.284,-0.573l0.285,-0.572l0.288,-0.571l0.288,-0.571l0.291,-0.569l0.292,-0.568l0.294,-0.567l0.295,-0.566l0.297,-0.566l0.299,-0.564l0.3,-0.563l0.303,-0.562l0.303,-0.561l0.306,-0.56l0.307,-0.559l0.308,-0.558l0.311,-0.557l0.311,-0.556l0.314,-0.555l0.315,-0.554l0.317,-0.553l0.318,-0.552l0.32,-0.55l0.322,-0.55l0.323,-0.549l0.325,-0.547l0.326,-0.547l0.328,-0.545l0.33,-0.544l0.331,-0.544l0.333,-0.542l0.334,-0.541l0.336,-0.54l0.338,-0.539l0.339,-0.538l0.341,-0.536l0.342,-0.536l0.344,-0.535l0.345,-0.533l0.347,-0.532l0.349,-0.532l0.35,-0.53l0.351,-0.529l0.354,-0.528l0.354,-0.526l0.356,-0.526l0.358,-0.524l0.359,-0.524l0.361,-0.522l0.363,-0.521l0.364,-0.52l0.365,-0.519l0.367,-0.517l0.368,-0.517l0.37,-0.515l0.372,-0.514l0.373,-0.513l0.374,-0.512l0.376,-0.51l0.378,-0.51l0.379,-0.508l0.38,-0.507l0.382,-0.506l0.383,-0.505l0.385,-0.504l0.386,-0.502l0.388,-0.501l0.39,-0.5l0.39,-0.499l0.393,-0.497l0.393,-0.497l0.395,-0.495l0.397,-0.494l0.398,-0.493l0.399,-0.491l0.401,-0.49l0.403,-0.489l0.404,-0.488l0.405,-0.487l0.406,-0.485l0.409,-0.484l0.409,-0.483l0.411,-0.482l0.412,-0.48l0.414,-0.479l0.415,-0.478l0.417,-0.476l0.418,-0.476l0.419,-0.474l0.421,-0.473l0.422,-0.471l0.424,-0.47l0.425,-0.469l0.426,-0.468l0.428,-0.466l0.429,-0.466l0.43,-0.463l0.432,-0.463l0.433,-0.461l0.435,-0.46l0.436,-0.459l0.437,-0.457l0.439,-0.456l0.44,-0.455l0.441,-0.453l0.443,-0.452l0.444,-0.451l0.445,-0.449l0.447,-0.448l0.448,-0.447l0.45,-0.445l0.45,-0.444l0.452,-0.443l0.454,-0.441l0.454,-0.44l0.456,-0.439l0.458,-0.437l0.458,-0.436l0.46,-0.435l0.461,-0.433l0.463,-0.432l0.464,-0.43l0.465,-0.43l0.466,-0.427l0.468,-0.427l0.469,-0.425l0.47,-0.423l0.472,-0.422l0.472,-0.421l0.475,-0.419l0.475,-0.418l0.476,-0.417l0.478,-0.415l0.479,-0.414l0.481,-0.412l0.481,-0.411l0.483,-0.41l0.484,-0.408l0.486,-0.407l0.486,-0.405l0.488,-0.404l0.489,-0.402l0.49,-0.401l0.492,-0.399l0.492,-0.398l0.494,-0.397l0.496,-0.395l0.496,-0.394l0.498,-0.392l0.498,-0.391l0.5,-0.389l0.501,-0.388l0.503,-0.386l0.503,-0.385l0.505,-0.383l0.506,-0.382l0.507,-0.381l0.508,-0.379l0.51,-0.377l0.51,-0.376l0.512,-0.375l0.513,-0.373l0.514,-0.371l0.516,-0.37l0.516,-0.368l0.518,-0.367l0.519,-0.366l0.519,-0.364l0.521,-0.362l0.523,-0.361l0.523,-0.359l0.525,-0.358l0.525,-0.356l0.527,-0.355l0.528,-0.353l0.529,-0.352l0.53,-0.35l0.531,-0.348l0.532,-0.347l0.534,-0.346l0.534,-0.343l0.536,-0.343l0.537,-0.34l0.537,-0.339l0.539,-0.338l0.54,-0.336l0.541,-0.334l0.543,-0.333l0.543,-0.331l0.544,-0.33l0.546,-0.328l0.546,-0.326l0.548,-0.325l0.548,-0.323l0.55,-0.322l0.551,-0.32l0.551,-0.318l0.553,-0.317l0.554,-0.315l0.555,-0.314l0.556,-0.312l0.557,-0.31l0.558,-0.309l0.559,-0.307l0.56,-0.305l0.561,-0.304l0.562,-0.302l0.564,-0.3l0.564,-0.299l0.565,-0.297l0.566,-0.296l0.567,-0.293l0.569,-0.293l0.569,-0.29l0.57,-0.289l0.571,-0.287l0.572,-0.285l0.573,-0.284l0.575,-0.282l0.575,-0.28l0.576,-0.279l0.577,-0.277l0.578,-0.275l0.579,-0.274l0.58,-0.272l0.581,-0.27l0.582,-0.268l0.583,-0.267l0.583,-0.265l0.585,-0.263l0.586,-0.262l0.586,-0.26l0.588,-0.258l0.588,-0.256l0.59,-0.255l0.59,-0.253l0.591,-0.251l0.593,-0.249l0.593,-0.248l0.594,-0.246l0.595,-0.244l0.596,-0.243l0.596,-0.24l0.598,-0.239l0.598,-0.237l0.6,-0.235l0.6,-0.234l0.602,-0.232l0.602,-0.23l0.603,-0.228l0.604,-0.226l0.604,-0.225l0.606,-0.223l0.606,-0.221l0.608,-0.219l0.608,-0.217l0.609,-0.216l0.61,-0.214l0.611,-0.212l0.611,-0.21l0.613,-0.208l0.613,-0.207l0.614,-0.204l0.615,-0.203l0.616,-0.201l0.617,-0.199l0.617,-0.197l0.619,-0.196l0.619,-0.194l0.62,-0.191l0.62,-0.19l0.622,-0.188l0.622,-0.186l0.623,-0.185l0.624,-0.182l0.625,-0.181l0.626,-0.179l0.626,-0.176l0.627,-0.175l0.628,-0.173l0.629,-0.172l0.629,-0.169l0.63,-0.167l0.631,-0.166l0.632,-0.163l0.633,-0.162l0.633,-0.16l0.634,-0.158l0.635,-0.156l0.636,-0.154l0.636,-0.152l0.637,-0.15l0.638,-0.148l0.638,-0.147l0.639,-0.144l0.64,-0.143l0.641,-0.14l0.642,-0.139l0.642,-0.136l0.643,-0.135l0.643,-0.133l0.644,-0.131l0.645,-0.128l0.646,-0.127l0.647,-0.125l0.647,-0.123l0.647,-0.121l0.649,-0.119l0.649,-0.117l0.65,-0.115l0.651,-0.113l0.651,-0.111l0.652,-0.109l0.652,-0.107l0.653,-0.105l0.654,-0.103l0.655,-0.102l0.655,-0.099l0.656,-0.097l0.656,-0.095l0.657,-0.093l0.658,-0.091l0.659,-0.089l0.659,-0.087l0.659,-0.085l0.661,-0.082l0.661,-0.081l0.661,-0.079l0.662,-0.077l0.663,-0.075l0.664,-0.072l0.664,-0.071l0.664,-0.068l0.666,-0.067l0.665,-0.064l0.667,-0.063l0.667,-0.06l0.667,-0.058l0.669,-0.056l0.668,-0.054l0.67,-0.052l0.67,-0.05l0.67,-0.048l0.671,-0.046l0.672,-0.044l0.672,-0.041l0.673,-0.039l0.673,-0.038l0.674,-0.035l0.674,-0.033l0.675,-0.031l0.676,-0.029l0.676,-0.027l0.676,-0.024l0.677,-0.023l0.678,-0.02l0.678,-0.019l0.679,-0.016l0.679,-0.014l0.68,-0.012l0.68,-0.009l0.681,-0.008l0.681,-0.005l0.682,-0.003l0.682,-0.001l0.682,0.001ZM412.096,10.981l-0.65,0.003l-0.649,0.005l-0.649,0.007l-0.649,0.009l-0.648,0.011l-0.647,0.014l-0.647,0.015l-0.647,0.018l-0.646,0.019l-0.645,0.021l-0.645,0.024l-0.645,0.025l-0.644,0.028l-0.643,0.03l-0.643,0.031l-0.642,0.034l-0.642,0.035l-0.641,0.038l-0.641,0.039l-0.64,0.042l-0.639,0.044l-0.639,0.045l-0.639,0.048l-0.637,0.049l-0.638,0.052l-0.636,0.053l-0.637,0.056l-0.635,0.057l-0.635,0.06l-0.635,0.061l-0.633,0.063l-0.634,0.066l-0.632,0.067l-0.632,0.069l-0.632,0.071l-0.631,0.074l-0.63,0.075l-0.63,0.077l-0.629,0.079l-0.628,0.081l-0.628,0.082l-0.627,0.085l-0.627,0.087l-0.626,0.088l-0.625,0.091l-0.625,0.092l-0.624,0.095l-0.623,0.096l-0.623,0.098l-0.622,0.1l-0.622,0.102l-0.621,0.104l-0.62,0.106l-0.62,0.108l-0.618,0.109l-0.619,0.112l-0.617,0.113l-0.617,0.115l-0.617,0.117l-0.615,0.119l-0.615,0.121l-0.614,0.123l-0.614,0.124l-0.613,0.127l-0.612,0.128l-0.612,0.13l-0.611,0.132l-0.61,0.134l-0.609,0.136l-0.609,0.137l-0.608,0.139l-0.607,0.142l-0.607,0.143l-0.606,0.145l-0.605,0.146l-0.605,0.149l-0.604,0.15l-0.603,0.152l-0.602,0.154l-0.602,0.156l-0.601,0.158l-0.6,0.159l-0.599,0.161l-0.599,0.163l-0.598,0.165l-0.597,0.167l-0.596,0.168l-0.596,0.17l-0.595,0.172l-0.594,0.174l-0.593,0.175l-0.593,0.178l-0.592,0.179l-0.591,0.181l-0.59,0.182l-0.59,0.185l-0.589,0.186l-0.588,0.188l-0.587,0.189l-0.586,0.192l-0.586,0.193l-0.585,0.195l-0.584,0.196l-0.583,0.199l-0.582,0.2l-0.582,0.202l-0.581,0.203l-0.58,0.205l-0.579,0.207l-0.578,0.209l-0.578,0.211l-0.577,0.212l-0.575,0.214l-0.575,0.215l-0.575,0.218l-0.573,0.219l-0.573,0.22l-0.571,0.223l-0.571,0.224l-0.57,0.226l-0.569,0.227l-0.569,0.229l-0.567,0.231l-0.567,0.232l-0.565,0.235l-0.565,0.235l-0.564,0.238l-0.563,0.239l-0.562,0.241l-0.562,0.243l-0.56,0.244l-0.56,0.245l-0.558,0.248l-0.558,0.249l-0.557,0.251l-0.556,0.252l-0.555,0.254l-0.554,0.256l-0.554,0.257l-0.552,0.259l-0.551,0.261l-0.551,0.262l-0.549,0.264l-0.549,0.265l-0.548,0.267l-0.547,0.269l-0.546,0.27l-0.545,0.272l-0.544,0.273l-0.543,0.275l-0.542,0.277l-0.541,0.278l-0.54,0.28l-0.539,0.281l-0.539,0.283l-0.537,0.285l-0.537,0.286l-0.535,0.288l-0.534,0.289l-0.534,0.291l-0.532,0.292l-0.532,0.294l-0.531,0.296l-0.529,0.297l-0.529,0.299l-0.527,0.3l-0.527,0.302l-0.525,0.303l-0.525,0.305l-0.524,0.306l-0.522,0.308l-0.522,0.309l-0.52,0.311l-0.52,0.313l-0.518,0.314l-0.518,0.315l-0.516,0.317l-0.516,0.319l-0.514,0.32l-0.514,0.321l-0.512,0.324l-0.511,0.324l-0.511,0.326l-0.509,0.328l-0.508,0.329l-0.507,0.33l-0.506,0.332l-0.505,0.334l-0.504,0.335l-0.503,0.336l-0.502,0.338l-0.501,0.34l-0.499,0.34l-0.499,0.343l-0.497,0.343l-0.497,0.346l-0.495,0.346l-0.494,0.349l-0.493,0.349l-0.492,0.351l-0.491,0.353l-0.49,0.353l-0.489,0.356l-0.488,0.357l-0.486,0.358l-0.486,0.359l-0.484,0.361l-0.483,0.363l-0.482,0.364l-0.481,0.365l-0.48,0.367l-0.478,0.368l-0.478,0.369l-0.476,0.371l-0.476,0.373l-0.474,0.373l-0.473,0.375l-0.471,0.377l-0.471,0.378l-0.469,0.379l-0.469,0.381l-0.467,0.382l-0.466,0.383l-0.465,0.385l-0.463,0.386l-0.463,0.388l-0.461,0.388l-0.46,0.391l-0.459,0.391l-0.458,0.393l-0.456,0.394l-0.456,0.396l-0.454,0.397l-0.453,0.398l-0.451,0.4l-0.451,0.401l-0.449,0.402l-0.448,0.404l-0.447,0.404l-0.446,0.407l-0.444,0.407l-0.443,0.409l-0.442,0.41l-0.441,0.412l-0.44,0.413l-0.438,0.414l-0.437,0.415l-0.436,0.417l-0.434,0.418l-0.433,0.419l-0.432,0.421l-0.431,0.422l-0.43,0.423l-0.428,0.424l-0.427,0.426l-0.425,0.427l-0.425,0.428l-0.423,0.43l-0.422,0.43l-0.42,0.432l-0.42,0.434l-0.418,0.434l-0.416,0.436l-0.416,0.437l-0.414,0.438l-0.413,0.44l-0.411,0.44l-0.41,0.442l-0.409,0.444l-0.408,0.444l-0.406,0.446l-0.405,0.446l-0.404,0.448l-0.402,0.45l-0.401,0.45l-0.4,0.452l-0.398,0.453l-0.397,0.454l-0.395,0.455l-0.395,0.457l-0.393,0.458l-0.391,0.459l-0.39,0.46l-0.389,0.461l-0.388,0.462l-0.386,0.464l-0.385,0.465l-0.383,0.466l-0.382,0.467l-0.381,0.468l-0.379,0.47l-0.378,0.47l-0.376,0.472l-0.375,0.473l-0.374,0.474l-0.372,0.475l-0.371,0.477l-0.37,0.477l-0.368,0.479l-0.367,0.48l-0.365,0.481l-0.364,0.482l-0.362,0.483l-0.361,0.484l-0.36,0.485l-0.358,0.487l-0.357,0.488l-0.355,0.488l-0.354,0.49l-0.353,0.491l-0.351,0.492l-0.349,0.493l-0.348,0.495l-0.347,0.495l-0.345,0.496l-0.344,0.498l-0.342,0.498l-0.341,0.5l-0.34,0.501l-0.338,0.502l-0.336,0.502l-0.335,0.504l-0.333,0.505l-0.332,0.507l-0.331,0.507l-0.329,0.508l-0.328,0.509l-0.326,0.51l-0.324,0.512l-0.323,0.512l-0.322,0.513l-0.32,0.515l-0.318,0.515l-0.317,0.517l-0.316,0.517l-0.314,0.519l-0.312,0.519l-0.311,0.521l-0.31,0.521l-0.308,0.523l-0.306,0.524l-0.305,0.524l-0.303,0.526l-0.302,0.526l-0.3,0.528l-0.299,0.529l-0.297,0.529l-0.295,0.531l-0.294,0.531l-0.293,0.533l-0.291,0.533l-0.289,0.535l-0.288,0.535l-0.286,0.537l-0.284,0.537l-0.283,0.538l-0.282,0.54l-0.279,0.54l-0.279,0.541l-0.276,0.542l-0.275,0.543l-0.274,0.544l-0.272,0.545l-0.27,0.546l-0.269,0.547l-0.267,0.548l-0.265,0.548l-0.264,0.55l-0.262,0.55l-0.261,0.552l-0.258,0.552l-0.258,0.553l-0.255,0.555l-0.254,0.555l-0.253,0.556l-0.251,0.557l-0.249,0.557l-0.247,0.559l-0.246,0.56l-0.244,0.56l-0.243,0.561l-0.24,0.563l-0.24,0.563l-0.237,0.564l-0.236,0.564l-0.234,0.566l-0.233,0.567l-0.231,0.567l-0.229,0.568l-0.227,0.57l-0.226,0.569l-0.224,0.571l-0.222,0.572l-0.221,0.573l-0.219,0.573l-0.217,0.574l-0.216,0.575l-0.214,0.576l-0.212,0.577l-0.21,0.577l-0.209,0.579l-0.207,0.579l-0.206,0.58l-0.203,0.581l-0.202,0.581l-0.2,0.583l-0.198,0.583l-0.197,0.584l-0.195,0.585l-0.193,0.585l-0.191,0.587l-0.19,0.587l-0.188,0.588l-0.186,0.589l-0.184,0.589l-0.183,0.591l-0.181,0.591l-0.179,0.592l-0.177,0.592l-0.176,0.594l-0.174,0.594l-0.171,0.595l-0.171,0.595l-0.168,0.597l-0.167,0.597l-0.164,0.598l-0.163,0.599l-0.162,0.599l-0.159,0.6l-0.158,0.601l-0.155,0.602l-0.154,0.602l-0.153,0.603l-0.15,0.604l-0.148,0.604l-0.147,0.606l-0.145,0.606l-0.143,0.606l-0.141,0.608l-0.14,0.608l-0.137,0.608l-0.136,0.61l-0.134,0.61l-0.132,0.611l-0.13,0.611l-0.128,0.613l-0.126,0.613l-0.125,0.613l-0.123,0.615l-0.121,0.614l-0.119,0.616l-0.117,0.616l-0.115,0.617l-0.113,0.618l-0.112,0.618l-0.109,0.619l-0.108,0.62l-0.106,0.62l-0.103,0.621l-0.102,0.621l-0.101,0.623l-0.098,0.622l-0.096,0.624l-0.094,0.624l-0.093,0.625l-0.09,0.625l-0.089,0.626l-0.087,0.627l-0.084,0.627l-0.083,0.628l-0.081,0.628l-0.079,0.629l-0.077,0.63l-0.075,0.63l-0.073,0.631l-0.071,0.631l-0.07,0.632l-0.067,0.633l-0.065,0.633l-0.064,0.634l-0.061,0.635l-0.059,0.635l-0.058,0.635l-0.055,0.636l-0.054,0.637l-0.051,0.637l-0.05,0.638l-0.047,0.638l-0.046,0.639l-0.044,0.64l-0.041,0.64l-0.04,0.641l-0.037,0.641l-0.036,0.642l-0.034,0.642l-0.031,0.643l-0.03,0.643l-0.027,0.644l-0.026,0.644l-0.023,0.645l-0.022,0.646l-0.019,0.646l-0.017,0.646l-0.016,0.647l-0.013,0.648l-0.011,0.648l-0.01,0.648l-0.007,0.649l-0.005,0.65l-0.003,0.65l-0.001,0.651l0.001,0.65l0.003,0.65l0.005,0.65l0.007,0.649l0.01,0.648l0.011,0.648l0.013,0.648l0.016,0.647l0.017,0.646l0.019,0.646l0.022,0.646l0.023,0.645l0.026,0.644l0.027,0.644l0.03,0.643l0.031,0.643l0.034,0.642l0.036,0.642l0.037,0.641l0.04,0.641l0.041,0.64l0.044,0.64l0.046,0.639l0.047,0.638l0.05,0.638l0.051,0.637l0.054,0.637l0.055,0.636l0.058,0.635l0.059,0.635l0.061,0.635l0.064,0.634l0.065,0.633l0.067,0.633l0.07,0.632l0.071,0.631l0.073,0.631l0.075,0.63l0.077,0.63l0.079,0.629l0.081,0.628l0.083,0.628l0.084,0.627l0.087,0.627l0.089,0.626l0.09,0.625l0.093,0.625l0.094,0.624l0.096,0.624l0.098,0.622l0.101,0.623l0.102,0.621l0.103,0.621l0.106,0.62l0.108,0.62l0.109,0.619l0.112,0.618l0.113,0.618l0.115,0.617l0.117,0.616l0.119,0.616l0.121,0.615l0.123,0.614l0.125,0.613l0.126,0.613l0.128,0.613l0.13,0.611l0.132,0.611l0.134,0.61l0.136,0.61l0.137,0.608l0.14,0.608l0.141,0.608l0.143,0.607l0.145,0.605l0.147,0.606l0.148,0.604l0.15,0.604l0.153,0.603l0.154,0.602l0.155,0.602l0.158,0.601l0.159,0.6l0.162,0.599l0.163,0.599l0.164,0.598l0.167,0.597l0.168,0.597l0.171,0.595l0.171,0.595l0.174,0.594l0.176,0.594l0.177,0.592l0.179,0.592l0.181,0.591l0.183,0.591l0.184,0.589l0.186,0.589l0.188,0.588l0.19,0.587l0.191,0.587l0.193,0.585l0.195,0.585l0.197,0.584l0.198,0.583l0.2,0.583l0.202,0.581l0.203,0.581l0.206,0.58l0.207,0.579l0.209,0.579l0.21,0.577l0.212,0.577l0.214,0.576l0.216,0.575l0.217,0.574l0.219,0.573l0.221,0.573l0.222,0.572l0.224,0.571l0.226,0.569l0.227,0.57l0.229,0.568l0.231,0.567l0.233,0.567l0.234,0.566l0.236,0.564l0.237,0.564l0.239,0.563l0.241,0.563l0.243,0.561l0.244,0.56l0.246,0.56l0.247,0.559l0.249,0.557l0.251,0.557l0.253,0.556l0.254,0.555l0.255,0.555l0.258,0.553l0.258,0.552l0.261,0.552l0.262,0.55l0.264,0.55l0.265,0.548l0.267,0.548l0.269,0.547l0.27,0.546l0.272,0.545l0.274,0.544l0.275,0.543l0.276,0.542l0.278,0.541l0.28,0.541l0.282,0.539l0.283,0.538l0.284,0.537l0.286,0.537l0.288,0.535l0.289,0.535l0.291,0.533l0.293,0.533l0.294,0.531l0.295,0.531l0.297,0.529l0.299,0.529l0.3,0.528l0.302,0.526l0.303,0.526l0.305,0.524l0.306,0.524l0.308,0.523l0.31,0.521l0.311,0.521l0.312,0.519l0.314,0.519l0.316,0.517l0.317,0.517l0.318,0.515l0.32,0.515l0.322,0.513l0.323,0.512l0.324,0.512l0.326,0.51l0.328,0.509l0.329,0.508l0.331,0.507l0.332,0.507l0.333,0.505l0.335,0.503l0.336,0.503l0.338,0.502l0.34,0.501l0.341,0.5l0.342,0.498l0.344,0.498l0.345,0.496l0.347,0.495l0.348,0.495l0.349,0.493l0.351,0.492l0.353,0.491l0.354,0.49l0.355,0.488l0.357,0.488l0.358,0.487l0.36,0.485l0.361,0.484l0.362,0.483l0.364,0.482l0.365,0.481l0.367,0.48l0.368,0.479l0.37,0.477l0.371,0.477l0.372,0.475l0.374,0.474l0.375,0.473l0.376,0.472l0.378,0.47l0.379,0.47l0.381,0.468l0.382,0.467l0.383,0.466l0.385,0.465l0.386,0.464l0.388,0.462l0.389,0.461l0.39,0.461l0.391,0.458l0.393,0.458l0.395,0.457l0.395,0.455l0.397,0.454l0.398,0.453l0.4,0.452l0.401,0.45l0.402,0.45l0.404,0.448l0.405,0.446l0.406,0.446l0.408,0.444l0.409,0.444l0.41,0.442l0.411,0.44l0.413,0.44l0.414,0.438l0.416,0.437l0.416,0.436l0.418,0.434l0.42,0.434l0.42,0.432l0.422,0.43l0.423,0.43l0.425,0.428l0.425,0.427l0.427,0.426l0.428,0.424l0.43,0.423l0.431,0.422l0.432,0.421l0.433,0.419l0.434,0.418l0.436,0.417l0.437,0.415l0.438,0.414l0.44,0.413l0.441,0.412l0.442,0.41l0.443,0.409l0.444,0.407l0.446,0.407l0.447,0.404l0.448,0.404l0.449,0.402l0.451,0.401l0.451,0.4l0.453,0.398l0.454,0.397l0.456,0.396l0.456,0.394l0.458,0.393l0.459,0.391l0.46,0.391l0.461,0.389l0.463,0.387l0.463,0.386l0.465,0.385l0.466,0.383l0.467,0.382l0.469,0.381l0.469,0.379l0.471,0.378l0.471,0.376l0.473,0.376l0.474,0.373l0.476,0.373l0.476,0.371l0.477,0.369l0.479,0.368l0.48,0.367l0.481,0.365l0.482,0.364l0.483,0.363l0.484,0.361l0.486,0.359l0.486,0.358l0.488,0.357l0.489,0.355l0.49,0.354l0.491,0.353l0.492,0.351l0.493,0.35l0.494,0.348l0.495,0.346l0.497,0.346l0.497,0.343l0.499,0.343l0.499,0.34l0.501,0.34l0.502,0.338l0.503,0.336l0.504,0.335l0.505,0.334l0.506,0.332l0.507,0.33l0.508,0.329l0.509,0.328l0.511,0.326l0.511,0.324l0.512,0.324l0.514,0.321l0.514,0.32l0.516,0.319l0.516,0.317l0.518,0.315l0.518,0.314l0.52,0.313l0.52,0.311l0.522,0.309l0.522,0.308l0.524,0.306l0.525,0.305l0.525,0.303l0.527,0.302l0.527,0.3l0.529,0.299l0.53,0.297l0.53,0.296l0.532,0.294l0.532,0.292l0.534,0.291l0.534,0.289l0.535,0.288l0.537,0.286l0.537,0.285l0.538,0.283l0.54,0.281l0.54,0.28l0.541,0.278l0.542,0.277l0.543,0.275l0.544,0.273l0.545,0.272l0.546,0.27l0.547,0.269l0.548,0.267l0.549,0.265l0.549,0.264l0.551,0.262l0.551,0.261l0.552,0.259l0.554,0.257l0.554,0.256l0.555,0.254l0.556,0.252l0.557,0.251l0.558,0.249l0.558,0.248l0.56,0.245l0.56,0.245l0.562,0.242l0.562,0.241l0.563,0.239l0.564,0.238l0.565,0.235l0.565,0.235l0.567,0.232l0.567,0.231l0.569,0.229l0.569,0.228l0.57,0.225l0.571,0.224l0.571,0.223l0.573,0.22l0.573,0.219l0.575,0.218l0.574,0.215l0.576,0.214l0.577,0.212l0.578,0.211l0.578,0.209l0.579,0.207l0.58,0.205l0.581,0.203l0.582,0.202l0.582,0.2l0.583,0.199l0.584,0.196l0.585,0.195l0.586,0.193l0.586,0.192l0.587,0.189l0.588,0.188l0.589,0.186l0.59,0.185l0.59,0.182l0.591,0.181l0.592,0.179l0.593,0.178l0.593,0.175l0.594,0.174l0.595,0.172l0.596,0.17l0.596,0.168l0.597,0.167l0.598,0.165l0.599,0.163l0.599,0.161l0.6,0.159l0.601,0.158l0.602,0.156l0.602,0.154l0.603,0.152l0.604,0.15l0.605,0.149l0.605,0.146l0.606,0.145l0.607,0.143l0.607,0.142l0.608,0.139l0.609,0.137l0.609,0.136l0.61,0.134l0.611,0.132l0.612,0.13l0.612,0.128l0.613,0.127l0.613,0.124l0.615,0.123l0.615,0.121l0.615,0.119l0.617,0.117l0.617,0.115l0.617,0.113l0.619,0.112l0.619,0.109l0.619,0.108l0.62,0.106l0.621,0.104l0.622,0.102l0.622,0.1l0.623,0.098l0.623,0.096l0.624,0.095l0.625,0.092l0.625,0.091l0.626,0.088l0.627,0.087l0.627,0.085l0.628,0.082l0.628,0.081l0.629,0.079l0.63,0.077l0.63,0.075l0.631,0.074l0.632,0.071l0.632,0.069l0.632,0.067l0.634,0.066l0.633,0.063l0.635,0.061l0.635,0.06l0.635,0.057l0.637,0.056l0.636,0.053l0.638,0.052l0.637,0.049l0.639,0.048l0.639,0.045l0.639,0.044l0.64,0.042l0.641,0.039l0.641,0.038l0.642,0.035l0.642,0.034l0.643,0.031l0.643,0.03l0.644,0.028l0.645,0.025l0.645,0.024l0.645,0.021l0.646,0.019l0.646,0.018l0.647,0.015l0.648,0.014l0.648,0.011l0.649,0.009l0.649,0.007l0.649,0.005l0.65,0.003l0.651,0.002l0.65,-0.002l0.65,-0.003l0.65,-0.005l0.649,-0.007l0.649,-0.009l0.648,-0.011l0.647,-0.014l0.647,-0.015l0.647,-0.018l0.646,-0.019l0.645,-0.021l0.645,-0.024l0.644,-0.025l0.644,-0.028l0.644,-0.03l0.642,-0.031l0.643,-0.034l0.641,-0.035l0.642,-0.038l0.64,-0.039l0.64,-0.042l0.64,-0.044l0.639,-0.045l0.638,-0.048l0.638,-0.049l0.637,-0.052l0.637,-0.053l0.636,-0.056l0.636,-0.057l0.635,-0.06l0.634,-0.061l0.634,-0.063l0.633,-0.066l0.633,-0.067l0.632,-0.069l0.631,-0.071l0.631,-0.074l0.63,-0.075l0.63,-0.077l0.629,-0.079l0.629,-0.081l0.627,-0.082l0.628,-0.085l0.626,-0.087l0.626,-0.088l0.626,-0.091l0.624,-0.092l0.624,-0.095l0.624,-0.096l0.623,-0.098l0.622,-0.1l0.621,-0.102l0.621,-0.104l0.621,-0.106l0.619,-0.108l0.619,-0.109l0.618,-0.112l0.618,-0.113l0.617,-0.115l0.616,-0.117l0.616,-0.119l0.615,-0.121l0.614,-0.123l0.614,-0.124l0.613,-0.127l0.612,-0.128l0.611,-0.13l0.611,-0.132l0.61,-0.134l0.61,-0.136l0.609,-0.137l0.608,-0.139l0.607,-0.142l0.607,-0.143l0.606,-0.144l0.605,-0.147l0.605,-0.149l0.603,-0.15l0.603,-0.152l0.603,-0.154l0.601,-0.156l0.601,-0.158l0.6,-0.159l0.6,-0.161l0.598,-0.163l0.598,-0.165l0.598,-0.167l0.596,-0.168l0.596,-0.17l0.595,-0.172l0.594,-0.174l0.593,-0.175l0.593,-0.178l0.592,-0.179l0.591,-0.181l0.59,-0.182l0.59,-0.185l0.588,-0.186l0.588,-0.188l0.588,-0.189l0.586,-0.192l0.586,-0.193l0.584,-0.195l0.584,-0.196l0.584,-0.199l0.582,-0.2l0.582,-0.202l0.581,-0.203l0.58,-0.205l0.579,-0.207l0.578,-0.209l0.578,-0.211l0.576,-0.212l0.576,-0.214l0.575,-0.215l0.574,-0.218l0.574,-0.219l0.572,-0.22l0.572,-0.223l0.571,-0.224l0.57,-0.225l0.569,-0.228l0.568,-0.229l0.568,-0.231l0.566,-0.232l0.566,-0.235l0.565,-0.235l0.564,-0.238l0.563,-0.239l0.562,-0.241l0.561,-0.242l0.561,-0.245l0.559,-0.245l0.559,-0.248l0.558,-0.249l0.557,-0.251l0.556,-0.252l0.555,-0.254l0.554,-0.256l0.553,-0.257l0.553,-0.259l0.551,-0.261l0.551,-0.262l0.549,-0.264l0.549,-0.265l0.548,-0.267l0.546,-0.269l0.546,-0.27l0.545,-0.272l0.544,-0.273l0.543,-0.275l0.542,-0.277l0.542,-0.278l0.54,-0.28l0.539,-0.281l0.538,-0.283l0.538,-0.285l0.536,-0.286l0.536,-0.288l0.534,-0.289l0.534,-0.291l0.532,-0.292l0.532,-0.294l0.53,-0.296l0.53,-0.297l0.528,-0.299l0.528,-0.3l0.526,-0.302l0.526,-0.303l0.525,-0.305l0.523,-0.306l0.523,-0.308l0.522,-0.309l0.52,-0.311l0.52,-0.313l0.518,-0.314l0.518,-0.315l0.516,-0.317l0.516,-0.319l0.514,-0.32l0.513,-0.321l0.513,-0.323l0.511,-0.325l0.51,-0.326l0.51,-0.328l0.508,-0.329l0.507,-0.33l0.506,-0.332l0.505,-0.334l0.504,-0.335l0.503,-0.336l0.501,-0.338l0.501,-0.34l0.5,-0.34l0.498,-0.343l0.498,-0.343l0.496,-0.346l0.496,-0.346l0.494,-0.348l0.493,-0.35l0.492,-0.351l0.491,-0.353l0.49,-0.354l0.489,-0.355l0.487,-0.357l0.487,-0.358l0.485,-0.359l0.484,-0.361l0.484,-0.363l0.482,-0.364l0.481,-0.365l0.479,-0.367l0.479,-0.368l0.478,-0.369l0.476,-0.371l0.475,-0.373l0.474,-0.373l0.473,-0.375l0.472,-0.377l0.471,-0.378l0.469,-0.379l0.468,-0.381l0.468,-0.382l0.465,-0.383l0.465,-0.385l0.464,-0.386l0.462,-0.387l0.462,-0.389l0.46,-0.391l0.459,-0.391l0.457,-0.393l0.457,-0.394l0.455,-0.396l0.454,-0.397l0.453,-0.398l0.452,-0.4l0.45,-0.401l0.45,-0.402l0.448,-0.404l0.447,-0.404l0.445,-0.407l0.445,-0.407l0.443,-0.409l0.442,-0.41l0.441,-0.412l0.439,-0.413l0.438,-0.414l0.437,-0.415l0.436,-0.417l0.435,-0.418l0.433,-0.419l0.432,-0.421l0.431,-0.422l0.429,-0.423l0.428,-0.424l0.427,-0.426l0.426,-0.427l0.424,-0.428l0.424,-0.43l0.422,-0.43l0.42,-0.432l0.419,-0.434l0.418,-0.434l0.417,-0.436l0.416,-0.437l0.414,-0.438l0.412,-0.44l0.412,-0.44l0.41,-0.442l0.409,-0.444l0.408,-0.444l0.406,-0.446l0.405,-0.446l0.403,-0.448l0.403,-0.45l0.401,-0.45l0.399,-0.452l0.398,-0.453l0.397,-0.454l0.396,-0.455l0.394,-0.457l0.393,-0.458l0.392,-0.458l0.39,-0.461l0.389,-0.461l0.387,-0.462l0.386,-0.464l0.385,-0.465l0.384,-0.466l0.382,-0.467l0.38,-0.468l0.379,-0.47l0.378,-0.47l0.377,-0.472l0.375,-0.473l0.374,-0.474l0.372,-0.475l0.371,-0.477l0.369,-0.477l0.368,-0.479l0.367,-0.48l0.366,-0.481l0.363,-0.482l0.363,-0.483l0.361,-0.484l0.36,-0.485l0.358,-0.487l0.357,-0.488l0.355,-0.488l0.354,-0.49l0.352,-0.491l0.351,-0.492l0.35,-0.493l0.348,-0.495l0.347,-0.495l0.345,-0.496l0.344,-0.498l0.342,-0.498l0.341,-0.5l0.339,-0.501l0.338,-0.502l0.337,-0.502l0.335,-0.504l0.333,-0.506l0.332,-0.506l0.331,-0.507l0.329,-0.508l0.327,-0.509l0.326,-0.51l0.325,-0.512l0.323,-0.512l0.321,-0.513l0.32,-0.515l0.319,-0.515l0.317,-0.517l0.316,-0.517l0.314,-0.519l0.312,-0.519l0.311,-0.521l0.309,-0.521l0.308,-0.523l0.307,-0.524l0.305,-0.524l0.303,-0.526l0.302,-0.526l0.3,-0.528l0.298,-0.528l0.297,-0.53l0.296,-0.531l0.294,-0.531l0.292,-0.533l0.291,-0.533l0.29,-0.535l0.287,-0.535l0.286,-0.537l0.285,-0.537l0.283,-0.538l0.281,-0.539l0.28,-0.541l0.278,-0.541l0.277,-0.542l0.275,-0.543l0.274,-0.544l0.271,-0.545l0.271,-0.546l0.268,-0.547l0.267,-0.548l0.266,-0.548l0.263,-0.55l0.263,-0.551l0.26,-0.551l0.259,-0.552l0.257,-0.553l0.256,-0.555l0.254,-0.555l0.252,-0.556l0.251,-0.557l0.249,-0.557l0.248,-0.559l0.246,-0.559l0.244,-0.561l0.242,-0.561l0.241,-0.562l0.239,-0.563l0.238,-0.565l0.236,-0.564l0.234,-0.566l0.232,-0.567l0.231,-0.567l0.229,-0.568l0.228,-0.569l0.226,-0.57l0.224,-0.572l0.222,-0.571l0.221,-0.572l0.219,-0.574l0.217,-0.574l0.216,-0.575l0.213,-0.576l0.213,-0.577l0.21,-0.577l0.209,-0.579l0.207,-0.579l0.205,-0.58l0.204,-0.581l0.202,-0.581l0.2,-0.583l0.198,-0.583l0.197,-0.584l0.195,-0.585l0.193,-0.586l0.191,-0.586l0.19,-0.587l0.188,-0.588l0.186,-0.589l0.184,-0.589l0.183,-0.591l0.181,-0.591l0.179,-0.592l0.177,-0.592l0.175,-0.594l0.174,-0.594l0.172,-0.595l0.17,-0.595l0.169,-0.597l0.166,-0.597l0.165,-0.598l0.163,-0.599l0.161,-0.599l0.16,-0.6l0.157,-0.601l0.156,-0.602l0.154,-0.602l0.152,-0.603l0.151,-0.604l0.148,-0.604l0.147,-0.606l0.145,-0.605l0.143,-0.607l0.141,-0.608l0.139,-0.608l0.138,-0.608l0.136,-0.61l0.133,-0.61l0.132,-0.611l0.13,-0.611l0.129,-0.613l0.126,-0.613l0.125,-0.613l0.122,-0.615l0.121,-0.614l0.119,-0.616l0.117,-0.616l0.115,-0.617l0.114,-0.618l0.111,-0.618l0.11,-0.619l0.107,-0.62l0.106,-0.62l0.104,-0.621l0.102,-0.621l0.1,-0.623l0.098,-0.622l0.097,-0.624l0.094,-0.624l0.092,-0.625l0.091,-0.625l0.089,-0.626l0.086,-0.627l0.085,-0.627l0.083,-0.628l0.081,-0.628l0.079,-0.629l0.077,-0.63l0.075,-0.63l0.073,-0.631l0.071,-0.631l0.069,-0.632l0.068,-0.633l0.065,-0.633l0.063,-0.634l0.062,-0.634l0.059,-0.636l0.058,-0.635l0.055,-0.636l0.054,-0.637l0.051,-0.637l0.05,-0.638l0.047,-0.638l0.046,-0.64l0.043,-0.639l0.042,-0.64l0.039,-0.641l0.038,-0.641l0.036,-0.641l0.033,-0.643l0.032,-0.643l0.029,-0.643l0.028,-0.644l0.025,-0.644l0.024,-0.645l0.021,-0.646l0.02,-0.646l0.017,-0.646l0.016,-0.647l0.013,-0.648l0.011,-0.648l0.009,-0.648l0.008,-0.649l0.005,-0.65l0.003,-0.65l0.001,-0.65l-0.001,-0.651l-0.003,-0.65l-0.005,-0.65l-0.008,-0.649l-0.009,-0.648l-0.011,-0.648l-0.013,-0.648l-0.016,-0.647l-0.017,-0.646l-0.02,-0.646l-0.021,-0.646l-0.024,-0.645l-0.025,-0.644l-0.028,-0.644l-0.029,-0.643l-0.032,-0.643l-0.033,-0.643l-0.036,-0.641l-0.038,-0.641l-0.039,-0.641l-0.042,-0.64l-0.043,-0.639l-0.046,-0.64l-0.047,-0.638l-0.05,-0.638l-0.051,-0.637l-0.054,-0.637l-0.055,-0.636l-0.058,-0.635l-0.059,-0.636l-0.062,-0.634l-0.063,-0.634l-0.065,-0.633l-0.068,-0.633l-0.069,-0.632l-0.071,-0.631l-0.073,-0.631l-0.075,-0.63l-0.077,-0.63l-0.079,-0.629l-0.081,-0.628l-0.083,-0.628l-0.085,-0.627l-0.086,-0.627l-0.089,-0.626l-0.091,-0.625l-0.092,-0.625l-0.094,-0.624l-0.097,-0.624l-0.098,-0.622l-0.1,-0.623l-0.102,-0.621l-0.104,-0.621l-0.106,-0.62l-0.107,-0.62l-0.11,-0.619l-0.111,-0.618l-0.114,-0.618l-0.115,-0.617l-0.117,-0.616l-0.119,-0.616l-0.121,-0.614l-0.122,-0.615l-0.125,-0.613l-0.126,-0.613l-0.129,-0.613l-0.13,-0.611l-0.132,-0.611l-0.133,-0.61l-0.136,-0.61l-0.138,-0.608l-0.139,-0.608l-0.141,-0.608l-0.143,-0.606l-0.145,-0.606l-0.147,-0.606l-0.148,-0.604l-0.151,-0.604l-0.152,-0.603l-0.154,-0.602l-0.156,-0.602l-0.157,-0.601l-0.16,-0.6l-0.161,-0.599l-0.163,-0.599l-0.165,-0.598l-0.166,-0.597l-0.169,-0.597l-0.17,-0.595l-0.172,-0.595l-0.174,-0.594l-0.175,-0.594l-0.177,-0.592l-0.179,-0.592l-0.181,-0.591l-0.183,-0.591l-0.184,-0.589l-0.186,-0.589l-0.188,-0.588l-0.19,-0.587l-0.191,-0.586l-0.193,-0.586l-0.195,-0.585l-0.197,-0.584l-0.198,-0.583l-0.2,-0.583l-0.202,-0.581l-0.204,-0.581l-0.205,-0.58l-0.207,-0.579l-0.209,-0.579l-0.21,-0.577l-0.213,-0.577l-0.213,-0.576l-0.216,-0.575l-0.217,-0.574l-0.219,-0.573l-0.221,-0.573l-0.222,-0.571l-0.224,-0.572l-0.226,-0.57l-0.228,-0.568l-0.229,-0.569l-0.231,-0.567l-0.232,-0.567l-0.234,-0.566l-0.236,-0.564l-0.238,-0.565l-0.239,-0.563l-0.241,-0.562l-0.242,-0.561l-0.244,-0.561l-0.246,-0.559l-0.248,-0.559l-0.249,-0.557l-0.251,-0.557l-0.252,-0.556l-0.254,-0.555l-0.256,-0.555l-0.257,-0.553l-0.259,-0.552l-0.26,-0.551l-0.263,-0.551l-0.263,-0.55l-0.266,-0.548l-0.267,-0.548l-0.268,-0.547l-0.271,-0.546l-0.271,-0.545l-0.274,-0.544l-0.275,-0.543l-0.277,-0.542l-0.278,-0.541l-0.28,-0.541l-0.281,-0.539l-0.283,-0.538l-0.285,-0.537l-0.286,-0.537l-0.287,-0.535l-0.29,-0.535l-0.291,-0.533l-0.292,-0.533l-0.294,-0.531l-0.296,-0.531l-0.297,-0.53l-0.298,-0.528l-0.3,-0.528l-0.302,-0.526l-0.303,-0.526l-0.305,-0.524l-0.307,-0.524l-0.308,-0.523l-0.309,-0.521l-0.311,-0.521l-0.312,-0.519l-0.314,-0.519l-0.316,-0.517l-0.317,-0.517l-0.319,-0.515l-0.32,-0.515l-0.321,-0.513l-0.323,-0.512l-0.325,-0.512l-0.326,-0.51l-0.327,-0.509l-0.329,-0.508l-0.331,-0.507l-0.332,-0.506l-0.333,-0.506l-0.335,-0.504l-0.337,-0.502l-0.338,-0.502l-0.339,-0.501l-0.341,-0.5l-0.342,-0.498l-0.344,-0.498l-0.345,-0.496l-0.347,-0.495l-0.348,-0.495l-0.35,-0.493l-0.351,-0.492l-0.352,-0.491l-0.354,-0.49l-0.355,-0.488l-0.357,-0.488l-0.358,-0.487l-0.36,-0.485l-0.361,-0.484l-0.363,-0.483l-0.363,-0.482l-0.366,-0.481l-0.367,-0.48l-0.368,-0.479l-0.369,-0.477l-0.371,-0.477l-0.372,-0.475l-0.374,-0.474l-0.375,-0.473l-0.377,-0.472l-0.378,-0.47l-0.379,-0.47l-0.38,-0.468l-0.382,-0.467l-0.384,-0.466l-0.385,-0.465l-0.386,-0.464l-0.387,-0.462l-0.389,-0.461l-0.39,-0.46l-0.392,-0.459l-0.393,-0.458l-0.394,-0.457l-0.396,-0.455l-0.397,-0.454l-0.398,-0.453l-0.399,-0.452l-0.401,-0.45l-0.403,-0.45l-0.403,-0.448l-0.405,-0.446l-0.406,-0.446l-0.408,-0.444l-0.409,-0.444l-0.41,-0.442l-0.412,-0.44l-0.412,-0.44l-0.415,-0.438l-0.415,-0.437l-0.417,-0.436l-0.418,-0.434l-0.419,-0.434l-0.42,-0.432l-0.422,-0.43l-0.424,-0.43l-0.424,-0.428l-0.426,-0.427l-0.427,-0.426l-0.428,-0.424l-0.429,-0.423l-0.431,-0.422l-0.432,-0.421l-0.433,-0.419l-0.435,-0.418l-0.436,-0.417l-0.437,-0.415l-0.438,-0.414l-0.439,-0.413l-0.441,-0.412l-0.442,-0.41l-0.443,-0.409l-0.445,-0.407l-0.445,-0.407l-0.447,-0.404l-0.448,-0.404l-0.449,-0.402l-0.451,-0.401l-0.452,-0.4l-0.453,-0.398l-0.454,-0.397l-0.455,-0.396l-0.457,-0.394l-0.457,-0.393l-0.459,-0.391l-0.46,-0.391l-0.462,-0.389l-0.462,-0.387l-0.464,-0.386l-0.464,-0.385l-0.466,-0.383l-0.468,-0.382l-0.468,-0.381l-0.469,-0.379l-0.471,-0.378l-0.472,-0.377l-0.473,-0.375l-0.474,-0.373l-0.475,-0.373l-0.476,-0.371l-0.478,-0.369l-0.479,-0.368l-0.479,-0.367l-0.481,-0.365l-0.482,-0.364l-0.484,-0.363l-0.484,-0.361l-0.485,-0.359l-0.487,-0.358l-0.487,-0.357l-0.489,-0.356l-0.49,-0.353l-0.491,-0.353l-0.492,-0.351l-0.493,-0.349l-0.494,-0.349l-0.496,-0.346l-0.496,-0.346l-0.498,-0.343l-0.498,-0.343l-0.5,-0.34l-0.501,-0.34l-0.501,-0.338l-0.503,-0.336l-0.504,-0.335l-0.505,-0.334l-0.506,-0.332l-0.507,-0.33l-0.508,-0.329l-0.51,-0.328l-0.51,-0.326l-0.511,-0.324l-0.513,-0.323l-0.513,-0.322l-0.514,-0.32l-0.516,-0.319l-0.516,-0.317l-0.518,-0.315l-0.518,-0.314l-0.52,-0.313l-0.52,-0.311l-0.522,-0.309l-0.523,-0.308l-0.523,-0.306l-0.525,-0.305l-0.525,-0.303l-0.527,-0.302l-0.528,-0.3l-0.528,-0.299l-0.53,-0.297l-0.53,-0.296l-0.532,-0.294l-0.532,-0.292l-0.534,-0.291l-0.534,-0.289l-0.536,-0.288l-0.536,-0.286l-0.538,-0.285l-0.538,-0.283l-0.539,-0.281l-0.54,-0.28l-0.542,-0.278l-0.542,-0.277l-0.543,-0.275l-0.544,-0.273l-0.545,-0.272l-0.546,-0.27l-0.546,-0.269l-0.548,-0.267l-0.549,-0.265l-0.55,-0.264l-0.55,-0.262l-0.551,-0.261l-0.553,-0.259l-0.553,-0.257l-0.554,-0.256l-0.555,-0.254l-0.556,-0.252l-0.557,-0.251l-0.558,-0.249l-0.559,-0.248l-0.559,-0.245l-0.561,-0.244l-0.561,-0.243l-0.562,-0.241l-0.563,-0.239l-0.564,-0.238l-0.565,-0.235l-0.566,-0.235l-0.566,-0.232l-0.568,-0.231l-0.568,-0.229l-0.569,-0.227l-0.57,-0.226l-0.571,-0.224l-0.572,-0.223l-0.572,-0.22l-0.574,-0.219l-0.574,-0.218l-0.575,-0.215l-0.576,-0.214l-0.576,-0.212l-0.578,-0.211l-0.578,-0.209l-0.579,-0.207l-0.581,-0.205l-0.58,-0.203l-0.582,-0.202l-0.582,-0.2l-0.584,-0.199l-0.584,-0.196l-0.584,-0.195l-0.586,-0.193l-0.586,-0.192l-0.588,-0.189l-0.588,-0.188l-0.588,-0.186l-0.59,-0.185l-0.59,-0.182l-0.591,-0.181l-0.592,-0.179l-0.593,-0.178l-0.593,-0.175l-0.594,-0.174l-0.595,-0.172l-0.596,-0.17l-0.596,-0.168l-0.598,-0.167l-0.598,-0.165l-0.598,-0.163l-0.6,-0.161l-0.6,-0.159l-0.601,-0.158l-0.601,-0.156l-0.603,-0.154l-0.603,-0.152l-0.604,-0.15l-0.604,-0.149l-0.605,-0.146l-0.606,-0.145l-0.607,-0.143l-0.607,-0.142l-0.608,-0.139l-0.609,-0.137l-0.61,-0.136l-0.61,-0.134l-0.611,-0.132l-0.611,-0.13l-0.612,-0.128l-0.613,-0.127l-0.614,-0.124l-0.614,-0.123l-0.615,-0.121l-0.616,-0.119l-0.616,-0.117l-0.617,-0.115l-0.618,-0.113l-0.618,-0.112l-0.619,-0.109l-0.619,-0.108l-0.621,-0.106l-0.621,-0.104l-0.621,-0.102l-0.622,-0.1l-0.623,-0.098l-0.624,-0.096l-0.624,-0.095l-0.624,-0.092l-0.626,-0.091l-0.626,-0.088l-0.626,-0.087l-0.627,-0.085l-0.628,-0.082l-0.629,-0.081l-0.629,-0.079l-0.629,-0.077l-0.631,-0.075l-0.631,-0.074l-0.631,-0.071l-0.632,-0.069l-0.633,-0.067l-0.633,-0.066l-0.634,-0.063l-0.634,-0.061l-0.635,-0.06l-0.636,-0.057l-0.636,-0.056l-0.637,-0.053l-0.637,-0.052l-0.638,-0.049l-0.638,-0.048l-0.639,-0.045l-0.64,-0.044l-0.64,-0.042l-0.64,-0.039l-0.642,-0.038l-0.641,-0.035l-0.643,-0.034l-0.642,-0.031l-0.644,-0.03l-0.644,-0.028l-0.644,-0.025l-0.645,-0.024l-0.645,-0.021l-0.646,-0.019l-0.647,-0.018l-0.647,-0.015l-0.647,-0.014l-0.648,-0.011l-0.649,-0.009l-0.649,-0.007l-0.65,-0.005l-0.65,-0.003l-0.65,-0.001l-0.651,0.001Z" style="fill:#fff;"/>
        <path d="M21.839,456.511l23.555,60.469l24.609,-64.864l23.555,64.864l25.019,-60.469l14.825,0l-40.43,96.211l-23.262,-64.102l-24.258,64.161l-38.437,-96.27l14.824,0Z" style="fill:#fff;fill-rule:nonzero;"/>
        <path d="M184.553,512.175l-13.418,-30.762l-14.062,30.762l27.48,0ZM190.119,525.007l-38.73,0l-10.078,21.973l-14.707,0l44.765,-96.153l43.184,96.153l-14.941,0l-9.493,-21.973Z" style="fill:#fff;fill-rule:nonzero;"/>
        <path d="M239.514,456.511l0,77.637l26.602,0l0,12.832l-40.254,0l0,-90.469l13.652,0Z" style="fill:#fff;fill-rule:nonzero;"/>
        <path d="M292.718,492.605l35.215,-36.094l18.223,0l-40.899,40.957l41.133,49.512l-18.281,0l-32.578,-40.254l-2.813,2.813l0,37.441l-13.652,0l0,-90.469l13.652,0l0,36.094Z" style="fill:#fff;fill-rule:nonzero;"/>
        <path d="M386.233,487.038l1.113,-0.82c1.914,-1.445 3.496,-2.704 4.746,-3.78c1.25,-1.074 2.148,-1.982 2.696,-2.724c1.172,-1.445 1.758,-3.223 1.758,-5.332c0,-2.382 -0.802,-4.316 -2.403,-5.801c-1.602,-1.484 -3.75,-2.227 -6.445,-2.227c-2.461,0 -4.532,0.762 -6.211,2.286c-1.68,1.445 -2.52,3.301 -2.52,5.566c0,2.657 1.055,5.273 3.164,7.852l3.399,4.101c0.117,0.196 0.351,0.489 0.703,0.879M383.303,504.323l-0.761,0.528c-5.587,3.867 -9.395,6.972 -11.426,9.316c-1.992,2.344 -2.988,4.825 -2.988,7.441c0,3.75 1.503,7.188 4.511,10.313c3.125,3.009 6.563,4.512 10.313,4.512c5.273,0 11.347,-3.457 18.222,-10.372l-17.871,-21.738ZM394.143,496.647l16.289,19.688l0.528,-0.586c1.757,-1.913 3.417,-3.788 4.98,-5.625c1.562,-1.836 3.066,-3.691 4.512,-5.566l8.906,9.14c-1.094,1.563 -2.53,3.379 -4.307,5.449c-1.777,2.072 -3.896,4.454 -6.357,7.149l16.758,20.683l-16.992,0l-9.024,-11.074c-8.282,8.555 -16.895,12.832 -25.84,12.832c-8.008,0 -14.805,-2.557 -20.39,-7.676c-5.47,-5.156 -8.203,-11.522 -8.203,-19.101c0,-9.024 4.335,-16.524 13.007,-22.5l5.918,-4.043c0.078,-0.038 0.215,-0.137 0.41,-0.293c0.195,-0.155 0.469,-0.371 0.821,-0.645c-5.977,-6.366 -8.965,-12.635 -8.965,-18.808c0,-6.094 1.992,-11.054 5.976,-14.883c4.063,-3.828 9.297,-5.742 15.704,-5.742c6.211,0 11.347,1.855 15.41,5.566c4.062,3.712 6.094,8.4 6.094,14.063c0,3.906 -1.114,7.441 -3.34,10.605c-2.188,3.164 -6.153,6.953 -11.895,11.367" style="fill:#fff;fill-rule:nonzero;"/>
        <path d="M459.944,456.511l0,77.637l26.602,0l0,12.832l-40.254,0l0,-90.469l13.652,0Z" style="fill:#fff;fill-rule:nonzero;"/>
        <path d="M549.417,469.343l-36.27,0l0,21.738l35.215,0l0,12.832l-35.215,0l0,30.235l36.27,0l0,12.832l-49.922,0l0,-90.469l49.922,0l0,12.832Z" style="fill:#fff;fill-rule:nonzero;"/>
        <path d="M614.925,512.175l-13.418,-30.762l-14.062,30.762l27.48,0ZM620.491,525.007l-38.73,0l-10.078,21.973l-14.707,0l44.765,-96.153l43.184,96.153l-14.941,0l-9.493,-21.973Z" style="fill:#fff;fill-rule:nonzero;"/>
        <path d="M669.886,498.054l4.336,0c12.929,0 19.394,-4.941 19.394,-14.824c0,-9.258 -6.29,-13.887 -18.867,-13.887l-4.863,0l0,28.711ZM686.878,508.425l28.008,38.555l-16.699,0l-25.84,-37.031l-2.461,0l0,37.031l-13.652,0l0,-90.469l15.996,0c11.953,0 20.586,2.247 25.898,6.738c5.86,5.001 8.789,11.602 8.789,19.805c0,6.407 -1.837,11.915 -5.508,16.523c-3.671,4.61 -8.516,7.559 -14.531,8.848" style="fill:#fff;fill-rule:nonzero;"/>
        <path d="M728.479,546.98l0,-96.621l65.977,69.023l0,-62.871l13.652,0l0,95.977l-65.977,-68.848l0,63.34l-13.652,0Z" style="fill:#fff;fill-rule:nonzero;"/>
    </g>
</svg>
